<svg xmlns="http://www.w3.org/2000/svg" xmlns:xlink="http://www.w3.org/1999/xlink" viewBox="0 0 448.16 304.69"><defs><style>.cls-1,.cls-17,.cls-19{fill:#a5b0cb;}.cls-2{isolation:isolate;}.cls-25,.cls-3,.cls-5{fill:#fac8d4;}.cls-3,.cls-4{opacity:0.57;}.cls-10,.cls-12,.cls-13,.cls-15,.cls-17,.cls-19,.cls-20,.cls-21,.cls-24,.cls-25,.cls-3,.cls-4,.cls-7{mix-blend-mode:multiply;}.cls-6,.cls-7{fill:#5f5dc5;}.cls-7{opacity:0.5;}.cls-15,.cls-8{fill:#f8be64;}.cls-9{fill:#fff;}.cls-11,.cls-13,.cls-24{fill:#d27e50;}.cls-12,.cls-13{opacity:0.41;}.cls-14,.cls-20{fill:#fcf4e1;}.cls-16{fill:#563b32;}.cls-17,.cls-21{opacity:0.52;}.cls-18{clip-path:url(#clip-path);}.cls-22{fill:#ea5d3b;}.cls-23{opacity:0.53;}</style><clipPath id="clip-path" transform="translate(-26.47 -83.9)"><path class="cls-1" d="M201.43,244.36c30.51,17.59,46.67,46.65,52.49,84l-57.6,27.81-1.27-1.06a98.94,98.94,0,0,1-31.49-47.33l-.09-.31L151,265.77Z"/></clipPath></defs><title>petevent</title><g class="cls-2"><g id="OBJECTS"><ellipse class="cls-3" cx="226.85" cy="288.75" rx="221.31" ry="15.94"/><g class="cls-4"><path class="cls-5" d="M463.39,289.35a37.41,37.41,0,0,0-11.28-16.11c-9.1-7.61-22.18-11.9-28.33-21.49-7.67-12-1.47-26.66,1-40.2,3.5-19.51-4-42.71-24.84-50.58-18.13-6.85-40.76-.18-57.9-8.74-20-10-21.87-34.62-36.78-49.9-11.86-12.15-31-17.1-48.71-18.2C233,82.67,207.08,88,192.91,104.31c-13.18,15.2-15.21,38.42-34.4,47.55-13.4,6.37-30,3-45,5.63-30.33,5.23-44.46,31-37.4,55.58,3,10.54,7,21.71,3,32C73.43,259.75,54,266.49,43.26,278.85c-13,14.92-11.28,37,.58,52.67s32,25.31,52.88,29.91,42.63,4.66,64.15,4.69l175.62.28c22.71,0,45.74,0,67.68-5.09s43-16.08,54.24-33.28C466,316.46,467.91,301.84,463.39,289.35Z" transform="translate(-26.47 -83.9)"/></g><path class="cls-1" d="M457.42,216.82c-5.89,4.62-10.92,6.63-18.45,6.74-5.38.07-9.82-2.38-14.62-1.92a1.89,1.89,0,0,0-.46,3.65,27,27,0,0,0,7.87,1.16c3.21.07,11.13-.27,6.69,5.73-4.33,5.83-13.84-.49-21.11-3.15a1.88,1.88,0,0,0-1.45,3.47c6.37,2.84,17.55,4.11,16.16,11.74-1.62,8.87-16.27-3.1-19.49-5.66-2-1.62-11-9.89-10.68-3.13.16,3.81,8.16,7.09,10.94,8.35s9.61,1.78,11.08,4.59c2.47,4.71-3.4,5.31-6.55,4.84-7.12-1-12.24-11.85-19.18-13.55a1.89,1.89,0,0,0-2,2.81,22.25,22.25,0,0,0,5.61,6.48c3.23,2.51,7,2.66,9.95,4.66,8.1,5.46-5.06,6.68-10.11,1.92-2.27-2.14-11-15.88-15.94-11.12,0,0,0,0,0,0l-.28.3-.08.1s0,0,0,0c-3.43,4.77,18,17.06,21,18.81,2.27,1.28,4.74.52,7.19.82a1.88,1.88,0,0,1,1.63,1.65c1.58,12.11-15.27.7-18.95-2.54-3.15-2.79-7-6.61-11-8s-10.76-1.51-7.65,3.68c1.73,2.88,8.8,7.66,11.71,9.65,3.65,2.51,7.51,3.31,11.47,5.07,3.18,1.42,9.27,5.75,4,8.42-2.64,1.34-8.41-1.47-10.76-2.71C386.84,276,381,263,372.06,263.25a1.88,1.88,0,0,0-1.77,2.39c2,6.67,14.33,12.8,19.18,16.08a24.22,24.22,0,0,0,6,3c2.15.69,5.31-.17,7.27.91,6,3.31,1,7.53-3.42,8.17-9.2,1.36-14.7-5.07-18.46-12.34-1.95-3.77-10.47-17.54-13.95-8.24-3.35,9,8.52,9.18,12.79,13.24,3,2.84,2.91,6.86,5.73,9.85,2.44,2.58,6.22,3.13,7.45,6.92,1.29,3.94,0,6.64-4.19,6.05-3.71-.52-6.26-4.74-8-7.69-2.1-3.56-2.7-8.33-5.67-11.31-2-2-7.78-4.58-9.65-1.07s7.21,14.49,9.31,17c5.35,6.43,9.11,8.22,16.44,10a1.91,1.91,0,0,1,1.42,1.55c.94,5.94-6.24,6.22-10.6,3.85-5-2.76-7.73-7.77-10.15-12.77-1.46-3-4.7-12.45-8.81-11.72-5.81,1-3.64,9.08-1,11.1,4.34,3.27,7.4,2.83,9.58,9,1.37,3.93,3.3,8.94,2.7,13.22-.78,5.6-4.8,7.08-7.66,1.37-2.07-4.19-.66-9-1.56-13.56-1-5.15-6.42-10.87-11.18-5.34-2.33,2.73-2.92,8.67-3.06,12.95a1.87,1.87,0,0,1-2.32,1.76c-1.08-.27-2.37-.59-3.54-.83l-.82-.17a1.89,1.89,0,0,1-1.33-2.65,90.84,90.84,0,0,1,4.75-8.48c.81-1.35,1.61-2.73,2.37-4.2l0-.07c1.84-3.55,2.27-5,.85-6.51a14,14,0,0,0-2.79-2.07c-2.57-1.61-16.21-8.25-8.65-11.91,5.11-2.48,9.21,6.17,13.05,7.39l.67.18c5.77,1.46,5.48-4,3.12-7.75a8.07,8.07,0,0,0-.71-1c-3.41-4.28-8.78-5.88-13.82-7.12-3.4-.82-10.13-1.46-9.72-6.71.57-7.54,10.22-1.47,13,1,3.18,2.86,9.81,14.09,11.71,6.92,3.15-11.86-16.59-17.93-16.8-29a1.87,1.87,0,0,1,2.24-1.84c3.76.75,5.38,5.69,7.43,8.61,1.4,2,7.38,11.43,9.35,11.62,3.82.37,4.49-6.43,3.9-9.42-1.48-7.51-9.87-9.68-15.73-12.78-7.27-3.85-8-13.22,1.37-9.51,6.6,2.61,9.78,10.49,14.43,15.3,7.08,7.35,4.8-2.83,2.7-7.44-2-4.33-5.91-8-9.81-10.74-5.92-4.16-16.72-3.31-17.7-12.61-1.46-13.82,22.87,7.26,25.82,10.53,2.8,3.1,3.26,7.3,4.83,10.9,1.68,3.85,5.34,6.93,6.92,1.17,1-3.57-2.13-6.94-4-9.38-4.54-5.84-13.48-10.81-15.61-18.16-3.32-11.5,7.26-10,11.41-2.36,3.18,5.88,5.27,12.2,7.63,18.3.73,1.9,3.18,8.94,5.36,5.3,1-1.67-1.11-7.15-1.54-8.84-1.61-6.29-4.81-11.2-7.28-17.14-1.6-3.87-3.37-21,4.08-14.62,3.73,3.18,4.3,13.32,6.26,17.76.88,2,2.1,8.06,3.42,12.19a1.88,1.88,0,0,0,3.58,0c1.2-3.89,1.84-7.87.42-11.9-2.08-5.9-7.52-6.23-7.27-13.3.21-5.53,2.83-10.17,7.33-4.68,3,3.6,3.82,10,4.91,14.42.72,2.91.05,10.33,1.59,12.7,3.93,6.09,3.2-5.78,3.08-8.24-.2-4-3.42-30.07,7.18-25.69,5.29,2.19.31,14.86-1.49,22.14a1.87,1.87,0,0,0,3.13,1.8c6.31-6.25,5.89-19.18,12.59-23.87s5.59,3.52,3.58,7.69c-1.41,2.93-6.86,7.5-8.44,11.24a1.88,1.88,0,0,0,2.46,2.45c4.61-1.95,10.65-6.48,13.94-8.87,4.55-3.3,9-15.33,15.5-14.15s-.41,7.72-4.82,11.16c-1,.77-1.82,1.37-2.37,1.74-2.1,1.4-7.38,3.65-11.25,6.1a1.88,1.88,0,0,0,1.48,3.41,94,94,0,0,0,14.12-5.07c4.33-2,13.67-12.63,18-12C471.52,199.85,460.32,214.55,457.42,216.82Z" transform="translate(-26.47 -83.9)"/><path class="cls-6" d="M420.48,273.36h0c-.17.15-.34.3-.52.44Z" transform="translate(-26.47 -83.9)"/><path class="cls-6" d="M382.5,319.73h0c-.07.12-.13.24-.2.35C382.37,320,382.43,319.85,382.5,319.73Z" transform="translate(-26.47 -83.9)"/><path class="cls-7" d="M370.54,335.7c.58-1.27,1.16-2.53,1.76-3.78h0C371.71,333.18,371.12,334.43,370.54,335.7Z" transform="translate(-26.47 -83.9)"/><path class="cls-7" d="M419.79,267.82l-.77.59.77-.6Z" transform="translate(-26.47 -83.9)"/><path class="cls-7" d="M395.06,293.23c-.63.84-1.26,1.7-1.88,2.55C393.8,294.92,394.43,294.07,395.06,293.23Z" transform="translate(-26.47 -83.9)"/><path class="cls-7" d="M451.13,251.5c.65-.21,1.3-.4,2-.59C452.43,251.1,451.78,251.29,451.13,251.5Z" transform="translate(-26.47 -83.9)"/><path class="cls-7" d="M439.32,256c-1.3.59-2.57,1.21-3.83,1.85,1.26-.64,2.53-1.26,3.83-1.85Z" transform="translate(-26.47 -83.9)"/><path class="cls-7" d="M401.54,285.18q1.6-1.86,3.27-3.65Q403.15,283.32,401.54,285.18Z" transform="translate(-26.47 -83.9)"/><path class="cls-7" d="M400.26,286.69h0l1.28-1.5C401.11,285.68,400.68,286.18,400.26,286.69Z" transform="translate(-26.47 -83.9)"/><path class="cls-7" d="M386.47,305.77q-1.31,2.09-2.59,4.23,1.28-2.14,2.59-4.24Z" transform="translate(-26.47 -83.9)"/><path class="cls-7" d="M388.91,302h0q2.08-3.17,4.27-6.2C391.73,297.81,390.3,299.87,388.91,302Z" transform="translate(-26.47 -83.9)"/><path class="cls-7" d="M374.26,327.84l.66-1.32-.66,1.32Z" transform="translate(-26.47 -83.9)"/><path class="cls-7" d="M380.64,315.63q1.59-2.85,3.24-5.62Q382.23,312.79,380.64,315.63Z" transform="translate(-26.47 -83.9)"/><path class="cls-6" d="M379.65,317.43,379,318.7l-.69,1.29c-.23.42-.45.86-.68,1.29l-.68,1.3-.67,1.3c-.44.87-.89,1.75-1.32,2.64l-.66,1.32a46,46,0,0,1-5.53-13.41,1.26,1.26,0,0,0-2.45.54,73.49,73.49,0,0,0,6,16.95c-.6,1.25-1.18,2.51-1.76,3.78l-.87,1.91c-.28.63-.57,1.27-.85,1.92a38.84,38.84,0,0,1-4.07-7.24,49.61,49.61,0,0,1,4.93-48C370.56,303.17,378.55,315.77,379.65,317.43Z" transform="translate(-26.47 -83.9)"/><path class="cls-8" d="M465.78,246.94a3.52,3.52,0,0,0-2.17-2.69,50,50,0,0,0-23.83-2.93c-2.5,6.26-6.77,16.09-10.43,20l1.27-.76,1.15-.66,1.23-.68,1.24-.67,1.25-.65c1.26-.64,2.53-1.26,3.83-1.85a14.78,14.78,0,0,1,1.5-7.15,1.26,1.26,0,0,1,2.36.8,7,7,0,0,0,.34,4.54c1.54-.63,3.11-1.21,4.71-1.76l1-.33,1.94-.62c.65-.21,1.3-.4,2-.59l1.36-.39,1.34-.35h0c1-.37,1.92-.72,2.83-1q-1.37.47-2.82,1,1.65-.42,3.33-.81c-.2.07-.59.2-1.15.42l-.24.1c-.34.13-.74.3-1.18.49l-.24.1-.78.34-.28.13c-1.13.51-2.48,1.14-4,1.91l-.78.39c-.83.42-1.7.88-2.62,1.37l-.46.25c-1.3.71-2.7,1.49-4.16,2.35l-.79.47-.53.32-1.56.94c-.75.47-1.53.95-2.31,1.46l-.57.36-.65.43a24.58,24.58,0,0,0,3.38,1.07,1.59,1.59,0,0,1-.53,3.13,23.35,23.35,0,0,1-6.61-1.67h0q-2.07,1.44-4.22,3l-1.08.81-1.32,1-.87.68q-.56.42-1.11.87h0a29.76,29.76,0,0,0,10,3.56,1.59,1.59,0,0,1-.28,3.16,27.93,27.93,0,0,1-13.27-3.24l-.75.08-1.2,1-.66.58q-2,1.75-4,3.66a29.6,29.6,0,0,0,10.09,3.65,1.59,1.59,0,0,1-.26,3.16,27.75,27.75,0,0,1-12.59-2.9l-1.54.26c-.84.85-1.68,1.7-2.52,2.58-.27.29-.54.57-.8.86-.07.06-.13.13-.2.2l-.54.59-.26.27c-.18.21-.37.41-.56.61L404,289.38c-.22.26-.45.51-.68.77l-.3.34-.87,1-.08.09-1,1.18c-.24.3-.49.59-.74.89l-.63.75c-.27.33-.54.67-.82,1l-.85,1.06c-.62.77-1.23,1.56-1.84,2.35l-.43.56-.1.13-.71.94-.22.3-.88,1.19c-.27.36-.53.72-.79,1.09l-.75,1.06.42-.28a54,54,0,0,0,6.5,1.89,1.6,1.6,0,0,1-.61,3.13,43.87,43.87,0,0,1-8.12-2.13h0c-.25.36-.5.73-.74,1.1l-.51.77-.55.84-.59.92-.63,1c-.31.5-.62,1-.94,1.51l-.67,1.11c-.54.9-1.08,1.82-1.62,2.75,1.15.36,2.83.86,4.87,1.33a1.59,1.59,0,0,1-.6,3.12,42.7,42.7,0,0,1-6-1.4h0l-.78,1.46c-.16.3-.33.61-.48.91q-1.19,2.25-2.32,4.57l-.6,1.26q-.68,1.41-1.32,2.85c1.15,0,2.66-.13,4.41-.32a1.59,1.59,0,0,1,.48,3.15,45,45,0,0,1-6.41.65c-.46,1.06-.9,2.13-1.33,3.22-.17.42-.34.84-.5,1.26l-.54,1.4,0,.07c-.17.46-.35.92-.52,1.39.85,0,1.93-.07,3.22-.16A76.08,76.08,0,0,0,428,314.84c3.05-3.57,6.64-7.95,10.38-12.88l-35.81-5.48c8.82-4.21,28.71-2.12,40.19-.45,10.51-14.63,21-32.58,23.08-48.09A3.35,3.35,0,0,0,465.78,246.94Zm-5.62,1.67c1.23-.41,2.4-.77,3.47-1.08C462.56,247.84,461.39,248.2,460.16,248.61Z" transform="translate(-26.47 -83.9)"/><path class="cls-8" d="M380.64,315.63q1.59-2.85,3.24-5.62h0q1.28-2.14,2.59-4.24a41.69,41.69,0,0,1-2.17-14.71,1.26,1.26,0,0,1,2.51-.05,59.08,59.08,0,0,0,2.1,11q2.08-3.17,4.27-6.2c.62-.86,1.25-1.71,1.88-2.55.13-.16.25-.32.37-.49l.43-.57.28-.36.55-.71a33.84,33.84,0,0,1-.87-16.11,1.26,1.26,0,0,1,2.49.23,31,31,0,0,0,1.95,11.46c.42-.5.85-1,1.28-1.5q1.6-1.86,3.27-3.65c.44-.48.88-.95,1.33-1.42.22-.24.45-.47.68-.7s.45-.47.67-.7l.68-.69,1.18-1.15c.09-.1.19-.19.29-.29l.53-.51.18-.17.59-.56a20.74,20.74,0,0,1-.54-8.9,1.26,1.26,0,0,1,2.5.18,21.7,21.7,0,0,0,.88,6.14c.49-.44,1-.86,1.47-1.28l.75-.63.75-.62.75-.61.76-.61c.25-.2.5-.41.76-.6l.77-.6a20.4,20.4,0,0,1,1.32-7.9,1.26,1.26,0,0,1,2.41.69,23.29,23.29,0,0,0-.47,4.81l0,0,.62-.44.73-.5.6-.41,1-.67.81-.52.22-.14.38-.25,1-.61,4.34-19.42c-20.17,4.23-40.58,17.36-54.8,32,.14,13.11.57,37.26,1.74,42.86Z" transform="translate(-26.47 -83.9)"/><path class="cls-8" d="M368.65,314.89a48.63,48.63,0,0,0,5.61,12.95l.66-1.32c.43-.89.88-1.77,1.32-2.64l.67-1.3.68-1.3c.23-.43.45-.87.68-1.29l.69-1.29.69-1.27c-1.1-1.66-9.09-14.26-10-33.16a49.61,49.61,0,0,0-4.93,48,38.84,38.84,0,0,0,4.07,7.24c.28-.65.57-1.29.85-1.92l.87-1.91c.58-1.27,1.16-2.53,1.76-3.78-1.53-3.12-4.84-9.79-6.26-16.39A1.34,1.34,0,0,1,368.65,314.89Z" transform="translate(-26.47 -83.9)"/><path class="cls-9" d="M370.54,335.7c.58-1.27,1.17-2.52,1.76-3.77h0c-2-4.06-6.78-14.71-6.61-23a.94.94,0,0,1,1.87-.12c.84,5.12,2.68,12.82,6.7,19.07h0l.66-1.32c.43-.89.88-1.77,1.32-2.64l.67-1.3.68-1.3c.23-.43.45-.87.68-1.29l.69-1.29.69-1.27.06-.11.93-1.69q1.59-2.85,3.24-5.62h0q1.29-2.14,2.59-4.23h0a40.77,40.77,0,0,1-1.74-19.26,1,1,0,0,1,1.88.14,56.15,56.15,0,0,0,2.3,15.34h0c1.39-2.11,2.82-4.17,4.27-6.2.62-.85,1.25-1.71,1.88-2.55.13-.16.25-.32.37-.49l.43-.57.28-.36.25-.33a.93.93,0,0,0,.16-.82,33.7,33.7,0,0,1,0-18.62,1,1,0,0,1,1.85.33,33.66,33.66,0,0,0,1.87,14.31h0c.42-.51.85-1,1.28-1.51q1.6-1.86,3.27-3.65c.44-.48.88-.95,1.33-1.42.22-.24.45-.47.68-.7s.45-.47.67-.7l.68-.69,1.18-1.15c.09-.1.19-.19.29-.29l.53-.51.18-.17.19-.18a.93.93,0,0,0,.26-.91,19.94,19.94,0,0,1,.35-11.34,1,1,0,0,1,1.85.36,26.46,26.46,0,0,0,.38,7.41.94.94,0,0,0,1.54.52l.33-.28.75-.63.75-.62.75-.61.76-.61c.25-.2.5-.41.76-.6l.77-.59h0a19.77,19.77,0,0,1,2.67-10.67,1,1,0,0,1,1.72.75,26.51,26.51,0,0,0-1.13,7.52l0,0,.62-.44.73-.5.6-.41,1-.67.81-.52.22-.14.38-.25,1-.61.92-.56,1.27-.76,1.15-.66,1.23-.68,1.24-.67,1.25-.65c1.26-.64,2.53-1.26,3.83-1.85h0a14,14,0,0,1,2.64-8.95.94.94,0,0,1,1.64.85,11,11,0,0,0-.46,5.32,1,1,0,0,0,1.26.62c1.26-.5,2.54-1,3.83-1.41l1-.33,1.94-.62c.65-.21,1.3-.4,2-.59l1.36-.39,1.34-.35h0q1.65-.42,3.33-.81c-.2.07-.59.2-1.15.43l-.24.09c-.34.13-.74.3-1.18.49l-.24.1-.78.34-.28.13c-1.13.51-2.48,1.14-4,1.91l-.78.39c-.83.42-1.7.88-2.62,1.37l-.46.25c-1.3.71-2.7,1.49-4.16,2.35l-.79.47-.53.32-1.56.94c-.75.47-1.53.95-2.31,1.46l-.57.36-.65.43a31.12,31.12,0,0,0,9.39,1.94,1,1,0,0,1,.14,1.87,22.33,22.33,0,0,1-13.29-1.28h0q-2.07,1.44-4.22,3l-1.08.81-1.32,1-.87.68h0c.06.79.06.78.13,1.57,4.36,2.28,9.7,3.17,13.55,3.52a.94.94,0,0,1,.12,1.86,27.07,27.07,0,0,1-18.89-2.82h0l-.52.44-1,.89-.66.58c-1,.9-2.07,1.83-3.11,2.79a1,1,0,0,0,.18,1.53c4.41,2.38,9.88,3.3,13.8,3.65a.94.94,0,0,1,.12,1.86,26.75,26.75,0,0,1-17.24-2l-2.59.48-2,2.09c-.27.29-.54.57-.8.86a1.7,1.7,0,0,0-.19.19l-.56.61-.25.26c-.18.21-.37.41-.56.61L404,289.38c-.22.26-.45.51-.68.77l-.3.34-.87,1-.08.09-1,1.18c-.24.3-.49.59-.74.89l-.63.75c-.27.33-.54.67-.82,1l-.85,1.06c-.62.77-1.23,1.56-1.84,2.35l-.43.56-.1.13-.71.94-.22.3-.88,1.19c-.27.36-.53.72-.79,1.09l-.75,1.06.42-.28a57.09,57.09,0,0,0,17.44,3.29,1,1,0,0,1,.14,1.88,40.66,40.66,0,0,1-19.12-2l-1.1.37-.33.49-.51.77-.55.84-.59.92-.63,1c-.31.5-.62,1-.94,1.51l-.67,1.11c-.34.56-.68,1.14-1,1.72a1,1,0,0,0,.54,1.38A56.56,56.56,0,0,0,400,319.4a1,1,0,0,1,.14,1.88,40.41,40.41,0,0,1-17.65-1.55h0c-.07.12-.13.24-.2.35-.19.37-.39.74-.59,1.11s-.33.61-.48.91q-1.19,2.25-2.32,4.57l-.6,1.26-.68,1.44a.94.94,0,0,0,.92,1.33,55.1,55.1,0,0,0,13.62-2.5.94.94,0,0,1,.72,1.74,40.35,40.35,0,0,1-16.82,4.3.93.93,0,0,0-.84.57c-.37.88-.73,1.77-1.09,2.67-.17.42-.34.84-.5,1.26l-.54,1.4,0,.07-.3.79a1,1,0,0,1-.86.62h-1a.94.94,0,0,1-.72-.33c-.36-.42-.71-.87-1.05-1.32a.93.93,0,0,1-.11-1l.63-1.41Z" transform="translate(-26.47 -83.9)"/><g class="cls-10"><path class="cls-5" d="M457.7,281.65c-4.61,3.55-7.08,7-8.61,12.61-1.09,4-.09,7.85-1.36,11.39a1.46,1.46,0,0,1-2.83-.35,21,21,0,0,1,.63-6.16c.56-2.43,2.34-8.34-3-6.14s-2.29,10.52-1.68,16.51a1.46,1.46,0,0,1-2.88.44c-.93-5.35.25-14-5.76-14.43-7-.48-.78,12.85.53,15.77.83,1.84,5.35,10.16.32,8.65-2.84-.86-3.78-7.52-4.2-9.85s.5-7.58-1.33-9.22c-3.08-2.77-4.66,1.54-4.91,4-.57,5.57,6.59,11.5,6.54,17.05a1.47,1.47,0,0,1-2.51,1,17.13,17.13,0,0,1-3.8-5.47c-1.28-2.91-.68-5.75-1.61-8.39-2.56-7.15-6,2.54-3.39,7.25,1.18,2.12,9.86,11.34,5.33,14.14l0,0a1.51,1.51,0,0,1-.28.15l-.08,0,0,0c-4.25,1.67-9.42-16.82-10.15-19.45-.53-2,.52-3.68.76-5.58a1.47,1.47,0,0,0-.93-1.55c-8.82-3.51-3.45,11.37-1.71,14.77,1.49,2.91,3.64,6.53,3.93,9.81s-.92,8.39-4.24,5.06c-1.84-1.86-4.08-8.1-5-10.68-1.19-3.23-1.06-6.28-1.62-9.61-.46-2.67-2.56-8.08-5.58-4.64-1.51,1.73-.5,6.62,0,8.62,1.48,6.08,10.14,13,8.24,19.65a1.46,1.46,0,0,1-2.14.88c-4.63-2.81-6.9-13.25-8.45-17.54a19.18,19.18,0,0,1-1.13-5.08c-.11-1.75,1.14-4,.7-5.65-1.34-5.15-5.48-2.19-6.81,1-2.78,6.68,1,12.05,5.77,16.28,2.47,2.18,11.21,11.24,3.53,12.08-7.41.81-5.28-8.18-7.52-12.17-1.57-2.79-4.61-3.51-6.32-6.21-1.48-2.33-1.18-5.28-3.8-6.94s-5-1.25-5.36,2c-.32,2.89,2.38,5.62,4.27,7.5,2.28,2.26,5.75,3.63,7.43,6.44,1.11,1.85,2,6.73-1,7.47s-9.54-8.21-11-10.27c-3.82-5.26-4.45-8.44-4.4-14.31a1.47,1.47,0,0,0-.9-1.36c-4.29-1.85-5.88,3.51-4.93,7.25,1.12,4.32,4.38,7.31,7.68,10.09,2,1.68,8.49,5.92,7.15,8.88-1.9,4.19-7.54,1-8.55-1.4-1.63-3.89-.72-6.11-5-9-2.7-1.78-6.1-4.19-9.44-4.56-4.37-.49-6.26,2.26-2.5,5.5,2.76,2.37,6.68,2.24,9.92,3.78,3.69,1.75,7,6.92,1.88,9.44-2.5,1.24-7.09.54-10.34-.17a1.45,1.45,0,0,0-1.77,1.41c0,.87,0,1.9-.05,2.83,0,.22,0,.44,0,.65a1.47,1.47,0,0,0,1.75,1.51,71.09,71.09,0,0,0,7.29-2c1.18-.35,2.37-.69,3.62-1l.07,0c3-.7,4.21-.74,5.07.61a11.5,11.5,0,0,1,1,2.5c.72,2.25,3.11,13.79,7.32,8.8,2.84-3.38-2.89-8.12-3.07-11.25,0-.19,0-.37,0-.54,0-4.63,4-3.37,6.44-.87a7.16,7.16,0,0,1,.63.73c2.57,3.39,2.75,7.74,2.72,11.78,0,2.72-.84,7.91,3.2,8.61,5.78,1,3.06-7.42,1.7-10-1.55-2.95-8.74-10.09-3-10.15,9.54-.11,10.33,15.93,18.65,18.21a1.45,1.45,0,0,0,1.81-1.33c.16-3-3.25-5.14-5.07-7.24-1.23-1.44-7.19-7.76-7-9.28.45-2.95,5.71-2.15,7.84-1.13,5.38,2.55,5.41,9.29,6.63,14.3,1.5,6.22,8.42,8.58,7.42.79-.7-5.47-6-9.38-8.77-13.8-4.17-6.75,3.06-3.08,6.13-.62,2.88,2.33,4.89,6,6.21,9.45,2,5.26-.7,13.24,6.12,15.76,10.13,3.74-1.09-18.63-3-21.48s-4.88-3.85-7.29-5.72c-2.59-2-4.2-5.36.44-5.44,2.87-.05,4.82,2.93,6.3,4.84,3.53,4.54,5.56,12.23,10.69,15.24,8,4.71,8.94-3.56,4-8.15-3.82-3.52-8.18-6.3-12.33-9.25-1.29-.92-6.12-4.11-3-5.06,1.44-.43,5.18,2.21,6.36,2.86,4.44,2.42,7.52,5.77,11.52,8.76,2.62,1.95,15.17,6.56,11.81-.27-1.68-3.42-9.22-5.79-12.19-8.12-1.34-1.05-5.67-3.13-8.53-4.91a1.46,1.46,0,0,1,.71-2.69c3.16-.16,6.28.12,9.05,2,4,2.7,3.25,6.86,8.62,8,4.21.91,8.21-.18,4.94-4.62-2.15-2.92-6.82-4.8-9.93-6.46-2.05-1.1-7.78-2-9.27-3.63-3.83-4.13,5-1.3,6.8-.74,3,.91,22,8.33,20.73-.5-.63-4.41-11.13-3.07-17-3.11a1.46,1.46,0,0,1-.76-2.71c5.92-3.55,15.58-.76,20.4-4.92s-1.58-4.87-5.11-4.16c-2.48.5-7,3.73-10.09,4.2a1.46,1.46,0,0,1-1.37-2.32c2.35-3.1,6.92-6.78,9.35-8.8,3.36-2.8,13.27-3.83,13.63-9s-5.89-1.16-9.33,1.5c-.77.59-1.39,1.11-1.77,1.46-1.45,1.3-4.16,4.86-6.75,7.3a1.46,1.46,0,0,1-2.28-1.76,73.44,73.44,0,0,1,6.52-9.67c2.32-2.89,12.13-7.89,12.51-11.27C473.19,274.27,460,279.9,457.7,281.65Z" transform="translate(-26.47 -83.9)"/></g><path class="cls-1" d="M42.58,216.82c5.89,4.62,10.92,6.63,18.45,6.74,5.38.07,9.82-2.38,14.62-1.92a1.89,1.89,0,0,1,.46,3.65,27,27,0,0,1-7.87,1.16c-3.21.07-11.13-.27-6.69,5.73,4.33,5.83,13.84-.49,21.11-3.15a1.88,1.88,0,0,1,1.45,3.47c-6.37,2.84-17.55,4.11-16.16,11.74,1.62,8.87,16.27-3.1,19.49-5.66,2-1.62,11-9.89,10.68-3.13-.16,3.81-8.16,7.09-10.94,8.35s-9.61,1.78-11.08,4.59c-2.47,4.71,3.4,5.31,6.55,4.84,7.12-1,12.24-11.85,19.18-13.55a1.89,1.89,0,0,1,2,2.81A22.25,22.25,0,0,1,98.26,249c-3.23,2.51-7,2.66-10,4.66-8.1,5.46,5.06,6.68,10.11,1.92,2.27-2.14,11-15.88,15.94-11.12l0,0,.28.3.08.1s0,0,0,0c3.43,4.77-18,17.06-21,18.81-2.27,1.28-4.74.52-7.19.82a1.88,1.88,0,0,0-1.63,1.65c-1.58,12.11,15.27.7,19-2.54,3.15-2.79,7-6.61,11-8s10.76-1.51,7.65,3.68c-1.73,2.88-8.8,7.66-11.71,9.65-3.65,2.51-7.51,3.31-11.47,5.07-3.18,1.42-9.27,5.75-4,8.42,2.64,1.34,8.41-1.47,10.76-2.71C113.16,276,119,263,127.94,263.25a1.88,1.88,0,0,1,1.77,2.39c-2,6.67-14.33,12.8-19.18,16.08a24.22,24.22,0,0,1-6,3c-2.15.69-5.31-.17-7.27.91-6,3.31-1,7.53,3.42,8.17,9.2,1.36,14.7-5.07,18.46-12.34,2-3.77,10.47-17.54,14-8.24,3.35,9-8.52,9.18-12.79,13.24-3,2.84-2.91,6.86-5.73,9.85-2.44,2.58-6.22,3.13-7.45,6.92-1.29,3.94,0,6.64,4.19,6.05,3.71-.52,6.26-4.74,8-7.69,2.1-3.56,2.7-8.33,5.67-11.31,2-2,7.78-4.58,9.65-1.07s-7.21,14.49-9.31,17c-5.35,6.43-9.11,8.22-16.44,10a1.89,1.89,0,0,0-1.42,1.55c-.94,5.94,6.24,6.22,10.6,3.85,5-2.76,7.73-7.77,10.15-12.77,1.46-3,4.7-12.45,8.81-11.72,5.81,1,3.64,9.08,1,11.1-4.34,3.27-7.4,2.83-9.58,9-1.37,3.93-3.3,8.94-2.7,13.22.78,5.6,4.8,7.08,7.66,1.37,2.07-4.19.66-9,1.56-13.56,1-5.15,6.42-10.87,11.18-5.34,2.33,2.73,2.92,8.67,3.06,12.95a1.87,1.87,0,0,0,2.32,1.76c1.08-.27,2.37-.59,3.54-.83l.82-.17a1.89,1.89,0,0,0,1.33-2.65,90.84,90.84,0,0,0-4.75-8.48c-.81-1.35-1.61-2.73-2.37-4.2l0-.07c-1.84-3.55-2.27-5-.85-6.51a14,14,0,0,1,2.79-2.07c2.57-1.61,16.21-8.25,8.65-11.91-5.11-2.48-9.21,6.17-13.05,7.39l-.67.18c-5.77,1.46-5.48-4-3.12-7.75a8.07,8.07,0,0,1,.71-1c3.41-4.28,8.78-5.88,13.82-7.12,3.4-.82,10.13-1.46,9.72-6.71-.57-7.54-10.22-1.47-13,1-3.18,2.86-9.81,14.09-11.71,6.92-3.15-11.86,16.59-17.93,16.8-29a1.87,1.87,0,0,0-2.24-1.84c-3.76.75-5.38,5.69-7.43,8.61-1.4,2-7.38,11.43-9.35,11.62-3.82.37-4.49-6.43-3.9-9.42,1.48-7.51,9.87-9.68,15.73-12.78,7.27-3.85,8-13.22-1.37-9.51-6.6,2.61-9.78,10.49-14.43,15.3-7.08,7.35-4.8-2.83-2.7-7.44,2-4.33,5.91-8,9.81-10.74,5.92-4.16,16.72-3.31,17.7-12.61,1.46-13.82-22.87,7.26-25.82,10.53-2.8,3.1-3.26,7.3-4.83,10.9-1.68,3.85-5.34,6.93-6.92,1.17-1-3.57,2.13-6.94,4-9.38,4.54-5.84,13.48-10.81,15.61-18.16,3.32-11.5-7.26-10-11.41-2.36-3.18,5.88-5.27,12.2-7.63,18.3-.73,1.9-3.18,8.94-5.36,5.3-1-1.67,1.11-7.15,1.54-8.84,1.61-6.29,4.81-11.2,7.28-17.14,1.6-3.87,3.37-21-4.08-14.62-3.73,3.18-4.3,13.32-6.26,17.76-.88,2-2.1,8.06-3.43,12.19a1.87,1.87,0,0,1-3.57,0c-1.2-3.89-1.84-7.87-.42-11.9,2.08-5.9,7.52-6.23,7.27-13.3-.21-5.53-2.83-10.17-7.33-4.68-3,3.6-3.82,10-4.91,14.42-.72,2.91-.05,10.33-1.59,12.7-3.93,6.09-3.2-5.78-3.08-8.24.2-4,3.42-30.07-7.18-25.69-5.29,2.19-.31,14.86,1.49,22.14a1.87,1.87,0,0,1-3.13,1.8c-6.31-6.25-5.89-19.18-12.59-23.87S74,198.45,76,202.62c1.41,2.93,6.86,7.5,8.44,11.24A1.88,1.88,0,0,1,82,216.31c-4.61-1.95-10.65-6.48-13.94-8.87-4.55-3.3-9-15.33-15.5-14.15S53,201,57.38,204.45c1,.77,1.82,1.37,2.37,1.74,2.1,1.4,7.38,3.65,11.25,6.1a1.88,1.88,0,0,1-1.48,3.41,94,94,0,0,1-14.12-5.07c-4.33-2-13.67-12.63-18-12C28.48,199.85,39.68,214.55,42.58,216.82Z" transform="translate(-26.47 -83.9)"/><path class="cls-6" d="M79.52,273.36h0c.17.15.34.3.52.44Z" transform="translate(-26.47 -83.9)"/><path class="cls-6" d="M117.5,319.73h0c.07.12.13.24.2.35C117.63,320,117.57,319.85,117.5,319.73Z" transform="translate(-26.47 -83.9)"/><path class="cls-7" d="M129.46,335.7c-.58-1.27-1.16-2.53-1.76-3.78h0C128.29,333.18,128.88,334.43,129.46,335.7Z" transform="translate(-26.47 -83.9)"/><path class="cls-7" d="M80.21,267.82l.77.59-.77-.6Z" transform="translate(-26.47 -83.9)"/><path class="cls-7" d="M104.94,293.23c.63.84,1.26,1.7,1.88,2.55C106.2,294.92,105.57,294.07,104.94,293.23Z" transform="translate(-26.47 -83.9)"/><path class="cls-7" d="M48.87,251.5c-.65-.21-1.3-.4-2-.59C47.57,251.1,48.22,251.29,48.87,251.5Z" transform="translate(-26.47 -83.9)"/><path class="cls-7" d="M60.68,256c1.3.59,2.57,1.21,3.83,1.85-1.26-.64-2.53-1.26-3.83-1.85Z" transform="translate(-26.47 -83.9)"/><path class="cls-7" d="M98.46,285.18q-1.6-1.86-3.27-3.65Q96.85,283.32,98.46,285.18Z" transform="translate(-26.47 -83.9)"/><path class="cls-7" d="M99.74,286.69h0l-1.28-1.5C98.89,285.68,99.32,286.18,99.74,286.69Z" transform="translate(-26.47 -83.9)"/><path class="cls-7" d="M113.53,305.77q1.31,2.09,2.59,4.23-1.28-2.14-2.59-4.24Z" transform="translate(-26.47 -83.9)"/><path class="cls-7" d="M111.09,302h0q-2.09-3.17-4.27-6.2C108.27,297.81,109.7,299.87,111.09,302Z" transform="translate(-26.47 -83.9)"/><path class="cls-7" d="M125.74,327.84l-.66-1.32.66,1.32Z" transform="translate(-26.47 -83.9)"/><path class="cls-7" d="M119.36,315.63q-1.59-2.85-3.24-5.62Q117.77,312.79,119.36,315.63Z" transform="translate(-26.47 -83.9)"/><path class="cls-8" d="M34.21,247.94C36.29,263.45,46.78,281.4,57.29,296c11.48-1.67,31.37-3.76,40.19.45L61.67,302c3.74,4.93,7.33,9.31,10.38,12.88a76.08,76.08,0,0,0,52.18,26.6c1.29.09,2.37.14,3.22.16-.17-.47-.35-.93-.52-1.39l0-.07-.54-1.4c-.16-.42-.33-.84-.5-1.26-.43-1.09-.87-2.16-1.33-3.22a45,45,0,0,1-6.41-.65,1.59,1.59,0,0,1,.48-3.15c1.75.19,3.26.28,4.41.32q-.65-1.44-1.32-2.85l-.6-1.26q-1.14-2.32-2.32-4.57c-.15-.3-.32-.61-.48-.91l-.78-1.46h0a42.7,42.7,0,0,1-6,1.4,1.59,1.59,0,0,1-.6-3.12c2-.47,3.72-1,4.87-1.33-.54-.93-1.08-1.85-1.62-2.75l-.67-1.11c-.32-.5-.63-1-.94-1.51l-.63-1-.59-.92-.55-.84-.51-.77c-.24-.37-.49-.74-.74-1.1h0a43.87,43.87,0,0,1-8.12,2.13,1.6,1.6,0,0,1-.61-3.13,54,54,0,0,0,6.5-1.89l.42.28L107,303c-.26-.37-.52-.73-.79-1.09l-.88-1.19-.22-.3-.71-.94-.1-.13-.43-.56c-.61-.79-1.22-1.58-1.84-2.35l-.85-1.06c-.28-.33-.55-.67-.82-1l-.63-.75c-.25-.3-.5-.59-.74-.89l-1-1.18-.08-.09-.87-1-.3-.34c-.23-.26-.46-.51-.68-.77L95,288.21c-.19-.2-.38-.4-.56-.61l-.26-.27-.54-.59-.2-.2c-.26-.29-.53-.57-.8-.86-.84-.88-1.68-1.73-2.52-2.58l-1.54-.26A27.75,27.75,0,0,1,76,285.74a1.59,1.59,0,0,1-.26-3.16,29.6,29.6,0,0,0,10.09-3.65q-2-1.9-4-3.66l-.66-.58-1.2-1-.75-.08a27.93,27.93,0,0,1-13.27,3.24,1.59,1.59,0,0,1-.28-3.16,29.76,29.76,0,0,0,10-3.56h0q-.56-.45-1.11-.87l-.87-.68-1.32-1-1.08-.81q-2.15-1.59-4.22-3h0a23.35,23.35,0,0,1-6.61,1.67,1.59,1.59,0,0,1-.53-3.13,24.58,24.58,0,0,0,3.38-1.07l-.65-.43-.57-.36c-.78-.51-1.56-1-2.31-1.46L58.08,258l-.53-.32-.79-.47c-1.46-.86-2.86-1.64-4.16-2.35l-.46-.25c-.92-.49-1.79-.95-2.62-1.37l-.78-.39c-1.52-.77-2.87-1.4-4-1.91l-.28-.13-.78-.34-.24-.1c-.44-.19-.84-.36-1.18-.49l-.24-.1c-.56-.22-1-.35-1.15-.42q1.68.39,3.33.81-1.46-.56-2.82-1c.91.31,1.85.66,2.83,1h0l1.34.35,1.36.39c.66.19,1.31.38,2,.59l1.94.62,1,.33c1.6.55,3.17,1.13,4.71,1.76a7,7,0,0,0,.34-4.54,1.26,1.26,0,0,1,2.36-.8,14.78,14.78,0,0,1,1.5,7.15c1.3.59,2.57,1.21,3.83,1.85l1.25.65,1.24.67,1.23.68,1.15.66,1.27.76c-3.66-3.88-7.93-13.71-10.43-20a50,50,0,0,0-23.83,2.93,3.52,3.52,0,0,0-2.17,2.69l2.08.57-2.08-.57A3.35,3.35,0,0,0,34.21,247.94Zm5.63.67c-1.23-.41-2.4-.77-3.47-1.08C37.44,247.84,38.61,248.2,39.84,248.61Zm.2.07,1.12.38Z" transform="translate(-26.47 -83.9)"/><path class="cls-6" d="M120.35,317.43l.69,1.27.69,1.29c.23.42.45.86.68,1.29l.68,1.3.67,1.3c.44.87.89,1.75,1.32,2.64l.66,1.32a46,46,0,0,0,5.53-13.41,1.26,1.26,0,0,1,2.45.54,73.49,73.49,0,0,1-6,16.95c.6,1.25,1.18,2.51,1.76,3.78l.87,1.91c.28.63.57,1.27.85,1.92a38.84,38.84,0,0,0,4.07-7.24,49.61,49.61,0,0,0-4.93-48C129.44,303.17,121.45,315.77,120.35,317.43Z" transform="translate(-26.47 -83.9)"/><path class="cls-8" d="M122,274.46c-.14,13.11-.57,37.26-1.74,42.86l-.93-1.69q-1.59-2.85-3.24-5.62h0q-1.28-2.14-2.59-4.24a41.69,41.69,0,0,0,2.17-14.71,1.26,1.26,0,0,0-2.51-.05,59.08,59.08,0,0,1-2.1,11q-2.09-3.17-4.27-6.2c-.62-.86-1.25-1.71-1.88-2.55-.13-.16-.25-.32-.37-.49l-.43-.57-.28-.36-.55-.71a33.84,33.84,0,0,0,.87-16.11,1.26,1.26,0,0,0-2.49.23,31,31,0,0,1-2,11.46c-.42-.5-.85-1-1.28-1.5q-1.6-1.86-3.27-3.65c-.44-.48-.88-.95-1.33-1.42-.22-.24-.45-.47-.68-.7s-.45-.47-.67-.7l-.68-.69-1.18-1.15-.29-.29-.53-.51-.18-.17-.59-.56a20.74,20.74,0,0,0,.54-8.9,1.26,1.26,0,0,0-2.5.18,21.7,21.7,0,0,1-.88,6.14c-.49-.44-1-.86-1.47-1.28l-.75-.63-.75-.62-.75-.61-.76-.61c-.25-.2-.5-.41-.76-.6l-.77-.6a20.4,20.4,0,0,0-1.32-7.9,1.26,1.26,0,0,0-2.41.69,23.29,23.29,0,0,1,.47,4.81l0,0-.62-.44-.73-.5L75,264l-1-.67-.81-.52-.22-.14-.38-.25-1-.61-4.34-19.42C87.4,246.66,107.81,259.79,122,274.46Z" transform="translate(-26.47 -83.9)"/><path class="cls-8" d="M135.25,332.29a38.84,38.84,0,0,1-4.07,7.24c-.28-.65-.57-1.29-.85-1.92l-.87-1.91c-.58-1.27-1.16-2.53-1.76-3.78,1.53-3.12,4.84-9.79,6.26-16.39a1.34,1.34,0,0,0-2.61-.64,48.63,48.63,0,0,1-5.61,12.95l-.66-1.32c-.43-.89-.88-1.77-1.32-2.64l-.67-1.3-.68-1.3c-.23-.43-.45-.87-.68-1.29L121,318.7l-.69-1.27c1.1-1.66,9.09-14.26,10-33.16A49.61,49.61,0,0,1,135.25,332.29Z" transform="translate(-26.47 -83.9)"/><path class="cls-9" d="M129.46,335.7c-.58-1.27-1.17-2.52-1.76-3.77h0c2-4.06,6.78-14.71,6.61-23a.94.94,0,0,0-1.87-.12c-.84,5.12-2.68,12.82-6.7,19.07h0l-.66-1.32c-.43-.89-.88-1.77-1.32-2.64l-.67-1.3-.68-1.3c-.23-.43-.45-.87-.68-1.29L121,318.7l-.69-1.27-.06-.11-.93-1.69q-1.59-2.85-3.24-5.62h0q-1.29-2.14-2.59-4.23h0a40.77,40.77,0,0,0,1.74-19.26,1,1,0,0,0-1.88.14,56.15,56.15,0,0,1-2.3,15.34h0c-1.39-2.11-2.82-4.17-4.27-6.2-.62-.85-1.25-1.71-1.88-2.55l-.37-.49-.43-.57-.28-.36-.25-.33a.93.93,0,0,1-.16-.82,33.7,33.7,0,0,0,0-18.62,1,1,0,0,0-1.85.33,33.66,33.66,0,0,1-1.87,14.31h0c-.42-.51-.85-1-1.28-1.51q-1.6-1.86-3.27-3.65c-.44-.48-.88-.95-1.33-1.42-.22-.24-.45-.47-.68-.7s-.45-.47-.67-.7l-.68-.69-1.18-1.15-.29-.29-.53-.51-.18-.17-.19-.18a.93.93,0,0,1-.26-.91,19.94,19.94,0,0,0-.35-11.34,1,1,0,0,0-1.85.36,26.46,26.46,0,0,1-.38,7.41.94.94,0,0,1-1.54.52l-.33-.28-.75-.63-.75-.62-.75-.61-.76-.61c-.25-.2-.5-.41-.76-.6l-.77-.59h0a19.77,19.77,0,0,0-2.67-10.67,1,1,0,0,0-1.72.75A26.51,26.51,0,0,1,77,265.41l0,0-.62-.44-.73-.5L75,264l-1-.67-.81-.52-.22-.14-.38-.25-1-.61-.92-.56-1.27-.76-1.15-.66L67,259.19l-1.24-.67-1.25-.65c-1.26-.64-2.53-1.26-3.83-1.85h0A14,14,0,0,0,58,247.07a.94.94,0,0,0-1.64.85,11,11,0,0,1,.46,5.32,1,1,0,0,1-1.26.62c-1.26-.5-2.54-1-3.83-1.41l-1-.33-1.94-.62c-.65-.21-1.3-.4-2-.59l-1.36-.39-1.34-.35h0q-1.65-.42-3.33-.81c.2.07.59.2,1.15.43l.24.09c.34.13.74.3,1.18.49l.24.1.78.34.28.13c1.13.51,2.48,1.14,4,1.91l.78.39c.83.42,1.7.88,2.62,1.37l.46.25c1.3.71,2.7,1.49,4.16,2.35l.79.47.53.32,1.56.94c.75.47,1.53.95,2.31,1.46l.57.36.65.43a31.12,31.12,0,0,1-9.39,1.94,1,1,0,0,0-.14,1.87,22.33,22.33,0,0,0,13.29-1.28h0q2.07,1.44,4.22,3l1.08.81,1.32,1,.87.68h0c-.06.79-.06.78-.13,1.57-4.36,2.28-9.7,3.17-13.55,3.52a.94.94,0,0,0-.12,1.86,27.07,27.07,0,0,0,18.89-2.82h0l.52.44,1,.89.66.58c1,.9,2.07,1.83,3.11,2.79a1,1,0,0,1-.18,1.53c-4.41,2.38-9.88,3.3-13.8,3.65a.94.94,0,0,0-.12,1.86,26.75,26.75,0,0,0,17.24-2l2.59.48,2,2.09c.27.29.54.57.8.86l.19.19.56.61.25.26c.18.21.37.41.56.61L96,289.38c.22.26.45.51.68.77l.3.34.87,1,.08.09,1,1.18c.24.3.49.59.74.89l.63.75c.27.33.54.67.82,1l.85,1.06c.62.77,1.23,1.56,1.84,2.35l.43.56.1.13.71.94.22.3.88,1.19c.27.36.53.72.79,1.09l.75,1.06-.42-.28a57.09,57.09,0,0,1-17.44,3.29,1,1,0,0,0-.14,1.88,40.66,40.66,0,0,0,19.12-2l1.1.37.33.49.51.77.55.84.59.92.63,1c.31.5.62,1,.94,1.51l.67,1.11c.34.56.68,1.14,1,1.72a1,1,0,0,1-.54,1.38A56.56,56.56,0,0,1,100,319.4a1,1,0,0,0-.14,1.88,40.41,40.41,0,0,0,17.65-1.55h0c.07.12.13.24.2.35.19.37.39.74.59,1.11s.33.61.48.91q1.19,2.25,2.32,4.57l.6,1.26.68,1.44a.94.94,0,0,1-.92,1.33,55.1,55.1,0,0,1-13.62-2.5.94.94,0,0,0-.72,1.74,40.35,40.35,0,0,0,16.82,4.3.93.93,0,0,1,.84.57c.37.88.73,1.77,1.09,2.67.17.42.34.84.5,1.26l.54,1.4,0,.07.3.79a1,1,0,0,0,.86.62h1a.94.94,0,0,0,.72-.33c.36-.42.71-.87,1-1.32a.93.93,0,0,0,.11-1l-.63-1.41Z" transform="translate(-26.47 -83.9)"/><path class="cls-5" d="M42.3,281.65c4.61,3.55,7.08,7,8.61,12.61,1.09,4,.09,7.85,1.36,11.39a1.46,1.46,0,0,0,2.83-.35,21,21,0,0,0-.63-6.16c-.56-2.43-2.34-8.34,3-6.14s2.29,10.52,1.68,16.51a1.46,1.46,0,0,0,2.88.44c.93-5.35-.25-14,5.76-14.43,7-.48.78,12.85-.53,15.77-.83,1.84-5.35,10.16-.32,8.65,2.84-.86,3.78-7.52,4.2-9.85s-.5-7.58,1.33-9.22c3.08-2.77,4.66,1.54,4.91,4,.57,5.57-6.59,11.5-6.54,17.05a1.47,1.47,0,0,0,2.51,1,17.13,17.13,0,0,0,3.8-5.47c1.28-2.91.68-5.75,1.61-8.39,2.56-7.15,6,2.54,3.39,7.25-1.18,2.12-9.86,11.34-5.33,14.14l0,0a1.51,1.51,0,0,0,.28.15l.08,0,0,0c4.25,1.67,9.42-16.82,10.15-19.45.53-2-.52-3.68-.76-5.58a1.47,1.47,0,0,1,.93-1.55c8.82-3.51,3.45,11.37,1.71,14.77-1.49,2.91-3.64,6.53-3.93,9.81s.92,8.39,4.24,5.06c1.84-1.86,4.08-8.1,5-10.68,1.19-3.23,1.06-6.28,1.62-9.61.46-2.67,2.56-8.08,5.58-4.64,1.51,1.73.5,6.62,0,8.62-1.48,6.08-10.14,13-8.24,19.65a1.46,1.46,0,0,0,2.14.88c4.63-2.81,6.9-13.25,8.45-17.54a19.18,19.18,0,0,0,1.13-5.08c.11-1.75-1.14-4-.7-5.65,1.34-5.15,5.48-2.19,6.81,1,2.78,6.68-1,12.05-5.77,16.28-2.47,2.18-11.21,11.24-3.53,12.08,7.41.81,5.28-8.18,7.52-12.17,1.57-2.79,4.61-3.51,6.32-6.21,1.48-2.33,1.18-5.28,3.8-6.94s5-1.25,5.36,2c.32,2.89-2.38,5.62-4.27,7.5-2.28,2.26-5.75,3.63-7.43,6.44-1.11,1.85-2,6.73,1,7.47s9.54-8.21,11-10.27c3.82-5.26,4.45-8.44,4.4-14.31a1.47,1.47,0,0,1,.9-1.36c4.29-1.85,5.88,3.51,4.93,7.25-1.12,4.32-4.38,7.31-7.68,10.09-2,1.68-8.49,5.92-7.15,8.88,1.9,4.19,7.54,1,8.55-1.4,1.63-3.89.72-6.11,5-9,2.7-1.78,6.1-4.19,9.44-4.56,4.37-.49,6.26,2.26,2.5,5.5-2.76,2.37-6.68,2.24-9.92,3.78-3.69,1.75-7,6.92-1.88,9.44,2.5,1.24,7.09.54,10.34-.17a1.45,1.45,0,0,1,1.77,1.41c0,.87,0,1.9,0,2.83,0,.22,0,.44,0,.65a1.47,1.47,0,0,1-1.75,1.51,71.09,71.09,0,0,1-7.29-2c-1.18-.35-2.37-.69-3.62-1l-.07,0c-3-.7-4.21-.74-5.07.61a11.5,11.5,0,0,0-1,2.5c-.72,2.25-3.11,13.79-7.32,8.8-2.84-3.38,2.89-8.12,3.07-11.25,0-.19,0-.37,0-.54,0-4.63-4-3.37-6.44-.87a7.16,7.16,0,0,0-.63.73c-2.57,3.39-2.75,7.74-2.72,11.78,0,2.72.84,7.91-3.2,8.61-5.78,1-3.06-7.42-1.7-10,1.55-2.95,8.74-10.09,3-10.15-9.54-.11-10.33,15.93-18.65,18.21a1.45,1.45,0,0,1-1.81-1.33c-.16-3,3.25-5.14,5.06-7.24,1.24-1.44,7.2-7.76,7-9.28-.45-2.95-5.71-2.15-7.84-1.13-5.38,2.55-5.41,9.29-6.63,14.3-1.5,6.22-8.42,8.58-7.42.79.7-5.47,6-9.38,8.77-13.8,4.17-6.75-3.06-3.08-6.13-.62-2.88,2.33-4.89,6-6.21,9.45-2,5.26.7,13.24-6.12,15.76-10.13,3.74,1.09-18.63,3-21.48s4.88-3.85,7.29-5.72c2.59-2,4.2-5.36-.44-5.44-2.87-.05-4.82,2.93-6.3,4.84C72,346.57,70,354.26,64.86,357.27c-8,4.71-8.94-3.56-4-8.15,3.82-3.52,8.18-6.3,12.33-9.25,1.29-.92,6.12-4.11,3-5.06-1.44-.43-5.18,2.21-6.36,2.86-4.44,2.42-7.52,5.77-11.52,8.76-2.62,1.95-15.17,6.56-11.81-.27,1.68-3.42,9.22-5.79,12.19-8.12,1.34-1.05,5.67-3.13,8.53-4.91a1.46,1.46,0,0,0-.71-2.69c-3.16-.16-6.28.12-9.05,2-4,2.7-3.25,6.86-8.62,8-4.21.91-8.21-.18-4.94-4.62,2.15-2.92,6.82-4.8,9.93-6.46,2.05-1.1,7.78-2,9.27-3.63,3.83-4.13-5-1.3-6.8-.74-3,.91-22,8.33-20.73-.5.63-4.41,11.13-3.07,17-3.11a1.46,1.46,0,0,0,.76-2.71c-5.92-3.55-15.58-.76-20.4-4.92s1.58-4.87,5.11-4.16c2.48.5,7,3.73,10.09,4.2a1.46,1.46,0,0,0,1.37-2.32c-2.35-3.1-6.92-6.78-9.35-8.8-3.36-2.8-13.27-3.83-13.63-9s5.89-1.16,9.33,1.5c.77.59,1.39,1.11,1.77,1.46,1.45,1.3,4.16,4.86,6.75,7.3a1.46,1.46,0,0,0,2.28-1.76,73.44,73.44,0,0,0-6.52-9.67c-2.32-2.89-12.13-7.89-12.51-11.27C26.81,274.27,40,279.9,42.3,281.65Z" transform="translate(-26.47 -83.9)"/><path class="cls-5" d="M457.7,281.65c-4.61,3.55-7.08,7-8.61,12.61-1.09,4-.09,7.85-1.36,11.39a1.46,1.46,0,0,1-2.83-.35,21,21,0,0,1,.63-6.16c.56-2.43,2.34-8.34-3-6.14s-2.29,10.52-1.68,16.51a1.46,1.46,0,0,1-2.88.44c-.93-5.35.25-14-5.76-14.43-7-.48-.78,12.85.53,15.77.83,1.84,5.35,10.16.32,8.65-2.84-.86-3.78-7.52-4.2-9.85s.5-7.58-1.33-9.22c-3.08-2.77-4.66,1.54-4.91,4-.57,5.57,6.59,11.5,6.54,17.05a1.47,1.47,0,0,1-2.51,1,17.13,17.13,0,0,1-3.8-5.47c-1.28-2.91-.68-5.75-1.61-8.39-2.56-7.15-6,2.54-3.39,7.25,1.18,2.12,9.86,11.34,5.33,14.14l0,0a1.51,1.51,0,0,1-.28.15l-.08,0,0,0c-4.25,1.67-9.42-16.82-10.15-19.45-.53-2,.52-3.68.76-5.58a1.47,1.47,0,0,0-.93-1.55c-8.82-3.51-3.45,11.37-1.71,14.77,1.49,2.91,3.64,6.53,3.93,9.81s-.92,8.39-4.24,5.06c-1.84-1.86-4.08-8.1-5-10.68-1.19-3.23-1.06-6.28-1.62-9.61-.46-2.67-2.56-8.08-5.58-4.64-1.51,1.73-.5,6.62,0,8.62,1.48,6.08,10.14,13,8.24,19.65a1.46,1.46,0,0,1-2.14.88c-4.63-2.81-6.9-13.25-8.45-17.54a19.18,19.18,0,0,1-1.13-5.08c-.11-1.75,1.14-4,.7-5.65-1.34-5.15-5.48-2.19-6.81,1-2.78,6.68,1,12.05,5.77,16.28,2.47,2.18,11.21,11.24,3.53,12.08-7.41.81-5.28-8.18-7.52-12.17-1.57-2.79-4.61-3.51-6.32-6.21-1.48-2.33-1.18-5.28-3.8-6.94s-5-1.25-5.36,2c-.32,2.89,2.38,5.62,4.27,7.5,2.28,2.26,5.75,3.63,7.43,6.44,1.11,1.85,2,6.73-1,7.47s-9.54-8.21-11-10.27c-3.82-5.26-4.45-8.44-4.4-14.31a1.47,1.47,0,0,0-.9-1.36c-4.29-1.85-5.88,3.51-4.93,7.25,1.12,4.32,4.38,7.31,7.68,10.09,2,1.68,8.49,5.92,7.15,8.88-1.9,4.19-7.54,1-8.55-1.4-1.63-3.89-.72-6.11-5-9-2.7-1.78-6.1-4.19-9.44-4.56-4.37-.49-6.26,2.26-2.5,5.5,2.76,2.37,6.68,2.24,9.92,3.78,3.69,1.75,7,6.92,1.88,9.44-2.5,1.24-7.09.54-10.34-.17a1.45,1.45,0,0,0-1.77,1.41c0,.87,0,1.9-.05,2.83,0,.22,0,.44,0,.65a1.47,1.47,0,0,0,1.75,1.51,71.09,71.09,0,0,0,7.29-2c1.18-.35,2.37-.69,3.62-1l.07,0c3-.7,4.21-.74,5.07.61a11.5,11.5,0,0,1,1,2.5c.72,2.25,3.11,13.79,7.32,8.8,2.84-3.38-2.89-8.12-3.07-11.25,0-.19,0-.37,0-.54,0-4.63,4-3.37,6.44-.87a7.16,7.16,0,0,1,.63.73c2.57,3.39,2.75,7.74,2.72,11.78,0,2.72-.84,7.91,3.2,8.61,5.78,1,3.06-7.42,1.7-10-1.55-2.95-8.74-10.09-3-10.15,9.54-.11,10.33,15.93,18.65,18.21a1.45,1.45,0,0,0,1.81-1.33c.16-3-3.25-5.14-5.07-7.24-1.23-1.44-7.19-7.76-7-9.28.45-2.95,5.71-2.15,7.84-1.13,5.38,2.55,5.41,9.29,6.63,14.3,1.5,6.22,8.42,8.58,7.42.79-.7-5.47-6-9.38-8.77-13.8-4.17-6.75,3.06-3.08,6.13-.62,2.88,2.33,4.89,6,6.21,9.45,2,5.26-.7,13.24,6.12,15.76,10.13,3.74-1.09-18.63-3-21.48s-4.88-3.85-7.29-5.72c-2.59-2-4.2-5.36.44-5.44,2.87-.05,4.82,2.93,6.3,4.84,3.53,4.54,5.56,12.23,10.69,15.24,8,4.71,8.94-3.56,4-8.15-3.82-3.52-8.18-6.3-12.33-9.25-1.29-.92-6.12-4.11-3-5.06,1.44-.43,5.18,2.21,6.36,2.86,4.44,2.42,7.52,5.77,11.52,8.76,2.62,1.95,15.17,6.56,11.81-.27-1.68-3.42-9.22-5.79-12.19-8.12-1.34-1.05-5.67-3.13-8.53-4.91a1.46,1.46,0,0,1,.71-2.69c3.16-.16,6.28.12,9.05,2,4,2.7,3.25,6.86,8.62,8,4.21.91,8.21-.18,4.94-4.62-2.15-2.92-6.82-4.8-9.93-6.46-2.05-1.1-7.78-2-9.27-3.63-3.83-4.13,5-1.3,6.8-.74,3,.91,22,8.33,20.73-.5-.63-4.41-11.13-3.07-17-3.11a1.46,1.46,0,0,1-.76-2.71c5.92-3.55,15.58-.76,20.4-4.92s-1.58-4.87-5.11-4.16c-2.48.5-7,3.73-10.09,4.2a1.46,1.46,0,0,1-1.37-2.32c2.35-3.1,6.92-6.78,9.35-8.8,3.36-2.8,13.27-3.83,13.63-9s-5.89-1.16-9.33,1.5c-.77.59-1.39,1.11-1.77,1.46-1.45,1.3-4.16,4.86-6.75,7.3a1.46,1.46,0,0,1-2.28-1.76,73.44,73.44,0,0,1,6.52-9.67c2.32-2.89,12.13-7.89,12.51-11.27C473.19,274.27,460,279.9,457.7,281.65Z" transform="translate(-26.47 -83.9)"/><g class="cls-10"><path class="cls-5" d="M457.7,281.65c-4.61,3.55-7.08,7-8.61,12.61-1.09,4-.09,7.85-1.36,11.39a1.46,1.46,0,0,1-2.83-.35,21,21,0,0,1,.63-6.16c.56-2.43,2.34-8.34-3-6.14s-2.29,10.52-1.68,16.51a1.46,1.46,0,0,1-2.88.44c-.93-5.35.25-14-5.76-14.43-7-.48-.78,12.85.53,15.77.83,1.84,5.35,10.16.32,8.65-2.84-.86-3.78-7.52-4.2-9.85s.5-7.58-1.33-9.22c-3.08-2.77-4.66,1.54-4.91,4-.57,5.57,6.59,11.5,6.54,17.05a1.47,1.47,0,0,1-2.51,1,17.13,17.13,0,0,1-3.8-5.47c-1.28-2.91-.68-5.75-1.61-8.39-2.56-7.15-6,2.54-3.39,7.25,1.18,2.12,9.86,11.34,5.33,14.14l0,0a1.51,1.51,0,0,1-.28.15l-.08,0,0,0c-4.25,1.67-9.42-16.82-10.15-19.45-.53-2,.52-3.68.76-5.58a1.47,1.47,0,0,0-.93-1.55c-8.82-3.51-3.45,11.37-1.71,14.77,1.49,2.91,3.64,6.53,3.93,9.81s-.92,8.39-4.24,5.06c-1.84-1.86-4.08-8.1-5-10.68-1.19-3.23-1.06-6.28-1.62-9.61-.46-2.67-2.56-8.08-5.58-4.64-1.51,1.73-.5,6.62,0,8.62,1.48,6.08,10.14,13,8.24,19.65a1.46,1.46,0,0,1-2.14.88c-4.63-2.81-6.9-13.25-8.45-17.54a19.18,19.18,0,0,1-1.13-5.08c-.11-1.75,1.14-4,.7-5.65-1.34-5.15-5.48-2.19-6.81,1-2.78,6.68,1,12.05,5.77,16.28,2.47,2.18,11.21,11.24,3.53,12.08-7.41.81-5.28-8.18-7.52-12.17-1.57-2.79-4.61-3.51-6.32-6.21-1.48-2.33-1.18-5.28-3.8-6.94s-5-1.25-5.36,2c-.32,2.89,2.38,5.62,4.27,7.5,2.28,2.26,5.75,3.63,7.43,6.44,1.11,1.85,2,6.73-1,7.47s-9.54-8.21-11-10.27c-3.82-5.26-4.45-8.44-4.4-14.31a1.47,1.47,0,0,0-.9-1.36c-4.29-1.85-5.88,3.51-4.93,7.25,1.12,4.32,4.38,7.31,7.68,10.09,2,1.68,8.49,5.92,7.15,8.88-1.9,4.19-7.54,1-8.55-1.4-1.63-3.89-.72-6.11-5-9-2.7-1.78-6.1-4.19-9.44-4.56-4.37-.49-6.26,2.26-2.5,5.5,2.76,2.37,6.68,2.24,9.92,3.78,3.69,1.75,7,6.92,1.88,9.44-2.5,1.24-7.09.54-10.34-.17a1.45,1.45,0,0,0-1.77,1.41c0,.87,0,1.9-.05,2.83,0,.22,0,.44,0,.65a1.47,1.47,0,0,0,1.75,1.51,71.09,71.09,0,0,0,7.29-2c1.18-.35,2.37-.69,3.62-1l.07,0c3-.7,4.21-.74,5.07.61a11.5,11.5,0,0,1,1,2.5c.72,2.25,3.11,13.79,7.32,8.8,2.84-3.38-2.89-8.12-3.07-11.25,0-.19,0-.37,0-.54,0-4.63,4-3.37,6.44-.87a7.16,7.16,0,0,1,.63.73c2.57,3.39,2.75,7.74,2.72,11.78,0,2.72-.84,7.91,3.2,8.61,5.78,1,3.06-7.42,1.7-10-1.55-2.95-8.74-10.09-3-10.15,9.54-.11,10.33,15.93,18.65,18.21a1.45,1.45,0,0,0,1.81-1.33c.16-3-3.25-5.14-5.07-7.24-1.23-1.44-7.19-7.76-7-9.28.45-2.95,5.71-2.15,7.84-1.13,5.38,2.55,5.41,9.29,6.63,14.3,1.5,6.22,8.42,8.58,7.42.79-.7-5.47-6-9.38-8.77-13.8-4.17-6.75,3.06-3.08,6.13-.62,2.88,2.33,4.89,6,6.21,9.45,2,5.26-.7,13.24,6.12,15.76,10.13,3.74-1.09-18.63-3-21.48s-4.88-3.85-7.29-5.72c-2.59-2-4.2-5.36.44-5.44,2.87-.05,4.82,2.93,6.3,4.84,3.53,4.54,5.56,12.23,10.69,15.24,8,4.71,8.94-3.56,4-8.15-3.82-3.52-8.18-6.3-12.33-9.25-1.29-.92-6.12-4.11-3-5.06,1.44-.43,5.18,2.21,6.36,2.86,4.44,2.42,7.52,5.77,11.52,8.76,2.62,1.95,15.17,6.56,11.81-.27-1.68-3.42-9.22-5.79-12.19-8.12-1.34-1.05-5.67-3.13-8.53-4.91a1.46,1.46,0,0,1,.71-2.69c3.16-.16,6.28.12,9.05,2,4,2.7,3.25,6.86,8.62,8,4.21.91,8.21-.18,4.94-4.62-2.15-2.92-6.82-4.8-9.93-6.46-2.05-1.1-7.78-2-9.27-3.63-3.83-4.13,5-1.3,6.8-.74,3,.91,22,8.33,20.73-.5-.63-4.41-11.13-3.07-17-3.11a1.46,1.46,0,0,1-.76-2.71c5.92-3.55,15.58-.76,20.4-4.92s-1.58-4.87-5.11-4.16c-2.48.5-7,3.73-10.09,4.2a1.46,1.46,0,0,1-1.37-2.32c2.35-3.1,6.92-6.78,9.35-8.8,3.36-2.8,13.27-3.83,13.63-9s-5.89-1.16-9.33,1.5c-.77.59-1.39,1.11-1.77,1.46-1.45,1.3-4.16,4.86-6.75,7.3a1.46,1.46,0,0,1-2.28-1.76,73.44,73.44,0,0,1,6.52-9.67c2.32-2.89,12.13-7.89,12.51-11.27C473.19,274.27,460,279.9,457.7,281.65Z" transform="translate(-26.47 -83.9)"/></g><g class="cls-10"><path class="cls-5" d="M42.3,281.65c4.61,3.55,7.08,7,8.61,12.61,1.09,4,.09,7.85,1.36,11.39a1.46,1.46,0,0,0,2.83-.35,21,21,0,0,0-.63-6.16c-.56-2.43-2.34-8.34,3-6.14s2.29,10.52,1.68,16.51a1.46,1.46,0,0,0,2.88.44c.93-5.35-.25-14,5.76-14.43,7-.48.78,12.85-.53,15.77-.83,1.84-5.35,10.16-.32,8.65,2.84-.86,3.78-7.52,4.2-9.85s-.5-7.58,1.33-9.22c3.08-2.77,4.66,1.54,4.91,4,.57,5.57-6.59,11.5-6.54,17.05a1.47,1.47,0,0,0,2.51,1,17.13,17.13,0,0,0,3.8-5.47c1.28-2.91.68-5.75,1.61-8.39,2.56-7.15,6,2.54,3.39,7.25-1.18,2.12-9.86,11.34-5.33,14.14l0,0a1.51,1.51,0,0,0,.28.15l.08,0,0,0c4.25,1.67,9.42-16.82,10.15-19.45.53-2-.52-3.68-.76-5.58a1.47,1.47,0,0,1,.93-1.55c8.82-3.51,3.45,11.37,1.71,14.77-1.49,2.91-3.64,6.53-3.93,9.81s.92,8.39,4.24,5.06c1.84-1.86,4.08-8.1,5-10.68,1.19-3.23,1.06-6.28,1.62-9.61.46-2.67,2.56-8.08,5.58-4.64,1.51,1.73.5,6.62,0,8.62-1.48,6.08-10.14,13-8.24,19.65a1.46,1.46,0,0,0,2.14.88c4.63-2.81,6.9-13.25,8.45-17.54a19.18,19.18,0,0,0,1.13-5.08c.11-1.75-1.14-4-.7-5.65,1.34-5.15,5.48-2.19,6.81,1,2.78,6.68-1,12.05-5.77,16.28-2.47,2.18-11.21,11.24-3.53,12.08,7.41.81,5.28-8.18,7.52-12.17,1.57-2.79,4.61-3.51,6.32-6.21,1.48-2.33,1.18-5.28,3.8-6.94s5-1.25,5.36,2c.32,2.89-2.38,5.62-4.27,7.5-2.28,2.26-5.75,3.63-7.43,6.44-1.11,1.85-2,6.73,1,7.47s9.54-8.21,11-10.27c3.82-5.26,4.45-8.44,4.4-14.31a1.47,1.47,0,0,1,.9-1.36c4.29-1.85,5.88,3.51,4.93,7.25-1.12,4.32-4.38,7.31-7.68,10.09-2,1.68-8.49,5.92-7.15,8.88,1.9,4.19,7.54,1,8.55-1.4,1.63-3.89.72-6.11,5-9,2.7-1.78,6.1-4.19,9.44-4.56,4.37-.49,6.26,2.26,2.5,5.5-2.76,2.37-6.68,2.24-9.92,3.78-3.69,1.75-7,6.92-1.88,9.44,2.5,1.24,7.09.54,10.34-.17a1.45,1.45,0,0,1,1.77,1.41c0,.87,0,1.9,0,2.83,0,.22,0,.44,0,.65a1.47,1.47,0,0,1-1.75,1.51,71.09,71.09,0,0,1-7.29-2c-1.18-.35-2.37-.69-3.62-1l-.07,0c-3-.7-4.21-.74-5.07.61a11.5,11.5,0,0,0-1,2.5c-.72,2.25-3.11,13.79-7.32,8.8-2.84-3.38,2.89-8.12,3.07-11.25,0-.19,0-.37,0-.54,0-4.63-4-3.37-6.44-.87a7.16,7.16,0,0,0-.63.73c-2.57,3.39-2.75,7.74-2.72,11.78,0,2.72.84,7.91-3.2,8.61-5.78,1-3.06-7.42-1.7-10,1.55-2.95,8.74-10.09,3-10.15-9.54-.11-10.33,15.93-18.65,18.21a1.45,1.45,0,0,1-1.81-1.33c-.16-3,3.25-5.14,5.06-7.24,1.24-1.44,7.2-7.76,7-9.28-.45-2.95-5.71-2.15-7.84-1.13-5.38,2.55-5.41,9.29-6.63,14.3-1.5,6.22-8.42,8.58-7.42.79.7-5.47,6-9.38,8.77-13.8,4.17-6.75-3.06-3.08-6.13-.62-2.88,2.33-4.89,6-6.21,9.45-2,5.26.7,13.24-6.12,15.76-10.13,3.74,1.09-18.63,3-21.48s4.88-3.85,7.29-5.72c2.59-2,4.2-5.36-.44-5.44-2.87-.05-4.82,2.93-6.3,4.84C72,346.57,70,354.26,64.86,357.27c-8,4.71-8.94-3.56-4-8.15,3.82-3.52,8.18-6.3,12.33-9.25,1.29-.92,6.12-4.11,3-5.06-1.44-.43-5.18,2.21-6.36,2.86-4.44,2.42-7.52,5.77-11.52,8.76-2.62,1.95-15.17,6.56-11.81-.27,1.68-3.42,9.22-5.79,12.19-8.12,1.34-1.05,5.67-3.13,8.53-4.91a1.46,1.46,0,0,0-.71-2.69c-3.16-.16-6.28.12-9.05,2-4,2.7-3.25,6.86-8.62,8-4.21.91-8.21-.18-4.94-4.62,2.15-2.92,6.82-4.8,9.93-6.46,2.05-1.1,7.78-2,9.27-3.63,3.83-4.13-5-1.3-6.8-.74-3,.91-22,8.33-20.73-.5.63-4.41,11.13-3.07,17-3.11a1.46,1.46,0,0,0,.76-2.71c-5.92-3.55-15.58-.76-20.4-4.92s1.58-4.87,5.11-4.16c2.48.5,7,3.73,10.09,4.2a1.46,1.46,0,0,0,1.37-2.32c-2.35-3.1-6.92-6.78-9.35-8.8-3.36-2.8-13.27-3.83-13.63-9s5.89-1.16,9.33,1.5c.77.59,1.39,1.11,1.77,1.46,1.45,1.3,4.16,4.86,6.75,7.3a1.46,1.46,0,0,0,2.28-1.76,73.44,73.44,0,0,0-6.52-9.67c-2.32-2.89-12.13-7.89-12.51-11.27C26.81,274.27,40,279.9,42.3,281.65Z" transform="translate(-26.47 -83.9)"/></g><path class="cls-11" d="M291.09,339.15c-1.54-.75-3.35-1.13-4.35-2.73-1.11-1.79-.72-4.29-.28-6.46,2.58-12.65,5.1-25.76,3.2-38.59L263,298.05c-.19,4.59-3.48,8.39-3.55,13a19.8,19.8,0,0,0,.94,5.39,152.71,152.71,0,0,1,4.69,28.26c.18,2.45.38,5.13,1.81,6.88a7.4,7.4,0,0,0,4.21,2.23,51.93,51.93,0,0,0,14.14,1.47,14.56,14.56,0,0,0,6.32-1.29,8.09,8.09,0,0,0,4.25-5.48A9,9,0,0,0,291.09,339.15Z" transform="translate(-26.47 -83.9)"/><g class="cls-12"><path class="cls-11" d="M291.09,339.15c-1.54-.75-3.35-1.13-4.35-2.73-1.11-1.79-.72-4.29-.28-6.46,2.58-12.65,5.1-25.76,3.2-38.59L263,298.05c-.19,4.59-3.48,8.39-3.55,13a19.8,19.8,0,0,0,.94,5.39,152.71,152.71,0,0,1,4.69,28.26c.18,2.45.38,5.13,1.81,6.88a7.4,7.4,0,0,0,4.21,2.23,51.93,51.93,0,0,0,14.14,1.47,14.56,14.56,0,0,0,6.32-1.29,8.09,8.09,0,0,0,4.25-5.48A9,9,0,0,0,291.09,339.15Z" transform="translate(-26.47 -83.9)"/></g><path class="cls-11" d="M366.68,355.34a16.23,16.23,0,0,0-5.63-9.56,11.17,11.17,0,0,0-8.92-2.29c-4.95-39.78,2-40.93,6.34-60.93,1-4.7,2.16-9.42,2.24-14.23s-1-9.81-4-13.57l-37.76,43.9a186.61,186.61,0,0,1,6.34,32.1A21.44,21.44,0,0,0,330,342.29a13.85,13.85,0,0,1,2.86,8.45c.06,3.84-.63,8.36,2.25,10.91a10.07,10.07,0,0,0,5.25,2,87.6,87.6,0,0,0,17.65,1c3.55-.16,7.53-.73,8.66-5.3A8.93,8.93,0,0,0,366.68,355.34Z" transform="translate(-26.47 -83.9)"/><g class="cls-12"><path class="cls-11" d="M366.68,355.34a16.23,16.23,0,0,0-5.63-9.56,11.17,11.17,0,0,0-8.92-2.29c-4.95-39.78,2-40.93,6.34-60.93,1-4.7,2.16-9.42,2.24-14.23s-1-9.81-4-13.57l-37.76,43.9a186.61,186.61,0,0,1,6.34,32.1A21.44,21.44,0,0,0,330,342.29a13.85,13.85,0,0,1,2.86,8.45c.06,3.84-.63,8.36,2.25,10.91a10.07,10.07,0,0,0,5.25,2,87.6,87.6,0,0,0,17.65,1c3.55-.16,7.53-.73,8.66-5.3A8.93,8.93,0,0,0,366.68,355.34Z" transform="translate(-26.47 -83.9)"/></g><path class="cls-13" d="M360.12,354.46a1,1,0,0,0-1.73,1,10,10,0,0,1,.79,7.9c-.39,1.23,1.55,1.76,1.94.53A12,12,0,0,0,360.12,354.46Z" transform="translate(-26.47 -83.9)"/><path class="cls-13" d="M364.16,351.61a1,1,0,0,0-1.73,1,11.81,11.81,0,0,1,1.27,8.87c-.32,1.25,1.62,1.79,1.93.54A13.85,13.85,0,0,0,364.16,351.61Z" transform="translate(-26.47 -83.9)"/><path class="cls-11" d="M255,241c-2.9-4.14-3.26-9.58-2.51-14.58s2.47-9.81,3.41-14.77a38.25,38.25,0,0,0-2.1-22.32,28.19,28.19,0,0,0-13.17-14,11.14,11.14,0,0,1,4.28,4.36,33.23,33.23,0,0,0-34.15,3.65c2.93-2.12,7.22-1.71,10.12.44a13.15,13.15,0,0,1,4.83,9.35,26.75,26.75,0,0,1-1.55,10.65c-2,6.09-5,11.85-6.32,18.11s-.71,13.44,3.75,18a7.57,7.57,0,0,1-5-3.43A19.3,19.3,0,0,0,227.37,250a11,11,0,0,1-5.16-.69,46.3,46.3,0,0,0,42.69,9.53l3.33-14C263.83,247.34,257.86,245.11,255,241Z" transform="translate(-26.47 -83.9)"/><path class="cls-11" d="M355.82,246.38a1.6,1.6,0,0,0-.05.21c0,.15-.1.32-.16.47a118.53,118.53,0,0,1-4.33,12.13c-5.1,12.15-12.45,23.29-23.25,30.61-13,8.8-29.27,10.92-44.93,12a206.08,206.08,0,0,1-21.37.58,108.6,108.6,0,0,1-11.09-.92c-4-.56-8.23-1.49-11.13-4.32s-3.85-6.66-4.38-10.48c-2.4-17.36,5.68-36.28,21-44.8,10.71-5.95,23.51-6.54,35.76-6.24,9.21.24,18.56.88,27.67-.15,1.92-.22,3.83-.51,5.71-.9.75-.15,1.49-.32,2.22-.49l1-.25L331,235l2.06.94,16.32,7.47h0l4.28,2,.1.05Z" transform="translate(-26.47 -83.9)"/><path class="cls-11" d="M369.65,239a24.34,24.34,0,0,1-1.19,12.76,1.36,1.36,0,0,1-.11.28,23.69,23.69,0,0,1-2.44,4.75h0c-.28.43-.59.87-.91,1.28a60,60,0,0,1-4.28,4.74,28.19,28.19,0,0,0-4.41,5.54c-2.22,3.9-2.26,9.72,1.57,12.07a5.36,5.36,0,0,1-4.95-4.23,24.28,24.28,0,0,0,2,14.94,9.74,9.74,0,0,1-5.54-6.68,30,30,0,0,1-15.64,16.92,16.9,16.9,0,0,0,2.64-9.66,43.06,43.06,0,0,1-27,15.62,13.51,13.51,0,0,0,4.57-7.38,53.27,53.27,0,0,1-24.77,6.7,27.8,27.8,0,0,0,8.77-6.29,89.21,89.21,0,0,1-30.82,2.89c-1.78-.13-3.55-.33-5.31-.58l-.08-.23-.35-1c.37-9.69,5.2-18.78,11.65-26s14.52-12.81,22.55-18.23,16.22-10.76,23.08-17.61c.72-.72,1.45-1.47,2.23-2.15a9.8,9.8,0,0,1,3.31-2,2.91,2.91,0,0,0,1.07-.72,26.17,26.17,0,0,0,3-3.62l.32-.42c1.91-2.6,3.89-5.24,5.31-5,13.58,2.44,26.44,8.45,36.82-.65q1.2,8.9,2.41,17.82Z" transform="translate(-26.47 -83.9)"/><path class="cls-14" d="M356.29,268.31c-2.21,3.9-2.25,9.72,1.57,12.07a5.36,5.36,0,0,1-4.94-4.23,24.2,24.2,0,0,0,2,14.94,9.74,9.74,0,0,1-5.54-6.68,30,30,0,0,1-15.64,16.92,16.9,16.9,0,0,0,2.64-9.66,43.09,43.09,0,0,1-27,15.62,13.51,13.51,0,0,0,4.57-7.38,53.27,53.27,0,0,1-24.77,6.7,27.91,27.91,0,0,0,8.77-6.29,89.23,89.23,0,0,1-30.82,2.89,32.81,32.81,0,0,1,10.64-6c7.5-2.61,15.53-3.15,23.34-4.66s15.78-4.22,21.1-10.11q-1.51,3.09-3,6.17a46.41,46.41,0,0,0,16.08-19.89,25.21,25.21,0,0,1-.3,10.9,39.54,39.54,0,0,0,13.45-20.26c5.72-1.55,11.6-3.1,17.51-2.58-.29.43-.59.87-.91,1.28C362.25,261.59,358.51,264.4,356.29,268.31Z" transform="translate(-26.47 -83.9)"/><g class="cls-10"><path class="cls-5" d="M368.35,252a23.69,23.69,0,0,1-2.44,4.75h0c-.28.43-.59.87-.91,1.28a60,60,0,0,1-4.28,4.74c-2.94-1.19-6.12-2.32-9.43-3.58-9.93-3.85-21-9.05-30.39-21.84-.45-.6-.89-1.22-1.33-1.86l1.33-.17a10.81,10.81,0,0,0,7.33-4.31l0,0c0-.19.09-.39.14-.58l.18.16a37.15,37.15,0,0,0,3.69,2.88l.34.24a163,163,0,0,0,16.81,9.77h0c1.44.75,2.89,1.46,4.32,2.17l.45.2h0l1.56.76c4.37,2.09,8.47,3.88,11.67,5.07Z" transform="translate(-26.47 -83.9)"/></g><ellipse class="cls-8" cx="333.73" cy="182.21" rx="5.22" ry="6.22"/><path class="cls-15" d="M364.34,266.11c0,2.5-1.7,4.53-3.8,4.53s-3.81-2-3.81-4.53,1.7-4.54,3.81-4.54S364.34,263.6,364.34,266.11Z" transform="translate(-26.47 -83.9)"/><path class="cls-11" d="M412.07,197.09c-.95-2-2.78-3.31-4.57-4.54a225.26,225.26,0,0,0-23.08-13.39,4.09,4.09,0,0,0-5.2,1.2,108.59,108.59,0,0,0-6.57,10h0a3.89,3.89,0,0,0,4.68,1.56l2-.76A2.34,2.34,0,0,1,381,191c.81.29,1,1.29,1.15,2.14,1.22,9.11,2.84,18.64,8.54,25.85,1.42,1.79,3.15,3.64,3.13,5.92a7,7,0,0,0,2.86-3.7l.87,4.39A22.38,22.38,0,0,0,404,213.5l1.65,3.66a47.58,47.58,0,0,0,4.42-13.24,4.16,4.16,0,0,1,1.87,2.31C412.69,203.21,413.43,199.89,412.07,197.09Z" transform="translate(-26.47 -83.9)"/><g class="cls-12"><path class="cls-11" d="M412.07,197.09c-.95-2-2.78-3.31-4.57-4.54a225.26,225.26,0,0,0-23.08-13.39,4.09,4.09,0,0,0-5.2,1.2,108.59,108.59,0,0,0-6.57,10h0a3.89,3.89,0,0,0,4.68,1.56l2-.76A2.34,2.34,0,0,1,381,191c.81.29,1,1.29,1.15,2.14,1.22,9.11,2.84,18.64,8.54,25.85,1.42,1.79,3.15,3.64,3.13,5.92a7,7,0,0,0,2.86-3.7l.87,4.39A22.38,22.38,0,0,0,404,213.5l1.65,3.66a47.58,47.58,0,0,0,4.42-13.24,4.16,4.16,0,0,1,1.87,2.31C412.69,203.21,413.43,199.89,412.07,197.09Z" transform="translate(-26.47 -83.9)"/></g><path class="cls-11" d="M395.86,218.11a22.68,22.68,0,0,1-3,15.78l-2.37-5A22,22,0,0,1,377.85,250a21.14,21.14,0,0,1-9.39,1.74,8.85,8.85,0,0,1-1-.06,22,22,0,0,1-11.83-4.6,14.67,14.67,0,0,1-1.4-1.23h0a3.26,3.26,0,0,1-.39-.36l-.11-.11s0,0,0,.06l0,.21c.28,1.48.57,3,.85,4.45a22.37,22.37,0,0,1-13.46-8.69c.34,1.61.68,3.23,1,4.84a16,16,0,0,1-9.55-12.55c-.05-.26-.07-.53-.1-.8a5.55,5.55,0,0,1-.24.56,6.14,6.14,0,0,1-5.39,3.25c.21-.86.41-1.72.62-2.58.25-1,.5-2.09.76-3.13,0-.19.09-.39.14-.58.6-2.5,1.2-5,1.81-7.51a15.25,15.25,0,0,0-3.64,6.56,12.4,12.4,0,0,0-.38,1.79c-.1-.39-.21-.79-.3-1.19a33.28,33.28,0,0,1,1.51-20.23l-4-.12a85.64,85.64,0,0,1,12.11-21.91,15.13,15.13,0,0,0-5.42,2.53,16,16,0,0,1,14-5.84c-1.6-.62-3.18-1.26-4.76-1.88a17.59,17.59,0,0,1,13.49.64l.34-.79a17.41,17.41,0,0,1,12.39-2.18l-3.36,2c7.36-1.29,15.67,0,20.86,5.35,4.21,4.37,5.67,10.61,7.29,16.46s3.88,12,8.91,15.41Z" transform="translate(-26.47 -83.9)"/><path class="cls-16" d="M373.21,235.76a8.58,8.58,0,0,0,5.25,3.09,9.09,9.09,0,0,0,6-.81,8.24,8.24,0,0,0,4.22-7.63,3.54,3.54,0,0,0,.08-.45,3.08,3.08,0,0,0-.82-2.21c-1-2-2.81-3.63-4.36-5.23l-5.86-6c-.39-.39-1.07.14-.68.54l5.56,5.72a42.65,42.65,0,0,1,3.62,3.85,8.32,8.32,0,0,0-2.52-.47,13.4,13.4,0,0,0-4,.38,11.62,11.62,0,0,0-6.06,3.41A4.67,4.67,0,0,0,373.21,235.76Z" transform="translate(-26.47 -83.9)"/><path class="cls-16" d="M351.89,232.67c0-.56.84-.69.86-.13.1,2.78,2.88,4.13,5.3,4.45,2.25.29,4.92-.28,6.58,1.63a10.79,10.79,0,0,1,1.64,3.29,6.17,6.17,0,0,0,2.05,2.87,7.56,7.56,0,0,0,6.06,1.12c2.82-.64,5.15-2.61,7-4.73a.45.45,0,0,1,.69,0,2.48,2.48,0,0,0,3.93.46c.38-.4,1.08.12.7.52a3.36,3.36,0,0,1-5,0,15.57,15.57,0,0,1-5.92,4.27,8.82,8.82,0,0,1-6.75-.16,6.6,6.6,0,0,1-2.59-2.06,20.38,20.38,0,0,1-1.7-3.67,3.72,3.72,0,0,0-3-2.4c-1.32-.16-2.66-.06-4-.25C355,237.43,352,235.75,351.89,232.67Z" transform="translate(-26.47 -83.9)"/><path class="cls-16" d="M351.79,217.34a3.38,3.38,0,0,0,.09.41,3.21,3.21,0,0,0,6.22-1.6C357.11,212.28,351.28,213.68,351.79,217.34Z" transform="translate(-26.47 -83.9)"/><path class="cls-16" d="M379.47,213.34a3,3,0,0,0,.08.41,3.21,3.21,0,0,0,6.22-1.6C384.78,208.28,379,209.69,379.47,213.34Z" transform="translate(-26.47 -83.9)"/><g class="cls-12"><path class="cls-11" d="M344.82,207.38a8.21,8.21,0,0,1,9.43-6.31c1.1.18.89,1.9-.22,1.72a6.6,6.6,0,0,0-7.49,4.81.89.89,0,0,1-1,.75A.87.87,0,0,1,344.82,207.38Z" transform="translate(-26.47 -83.9)"/><path class="cls-11" d="M376.9,199a2.35,2.35,0,0,1,2.06-1.82,5.42,5.42,0,0,1,2.78.64,9.82,9.82,0,0,1,3.94,3.34.89.89,0,0,1-.14,1.22.88.88,0,0,1-1.22-.14,8.17,8.17,0,0,0-2.76-2.57,6.34,6.34,0,0,0-1.77-.72,1.69,1.69,0,0,0-.81,0,.63.63,0,0,0-.31.19s-.06.12-.05.08a.89.89,0,0,1-1,.75A.87.87,0,0,1,376.9,199Z" transform="translate(-26.47 -83.9)"/></g><path class="cls-11" d="M309.86,204.5c.48-2.12,2-3.85,3.43-5.45a224,224,0,0,1,19.47-18.25,4.1,4.1,0,0,1,5.34,0,107.28,107.28,0,0,1,8.65,8.28h0a3.89,3.89,0,0,1-4.2,2.57l-2.14-.29a2.42,2.42,0,0,0-1.62.16c-.71.47-.71,1.5-.63,2.35.86,9.15,1.44,18.8-2.49,27.11-1,2.06-2.26,4.25-1.72,6.47a6.89,6.89,0,0,1-3.61-3c0,1.49.09,3,.13,4.47a22.39,22.39,0,0,1-9-10.3c-.26,1.32-.52,2.63-.79,3.94a47.81,47.81,0,0,1-7.29-11.9,4.19,4.19,0,0,0-1.3,2.67C310.63,210.6,309.16,207.53,309.86,204.5Z" transform="translate(-26.47 -83.9)"/><g class="cls-12"><path class="cls-11" d="M309.86,204.5c.48-2.12,2-3.85,3.43-5.45a224,224,0,0,1,19.47-18.25,4.1,4.1,0,0,1,5.34,0,107.28,107.28,0,0,1,8.65,8.28h0a3.89,3.89,0,0,1-4.2,2.57l-2.14-.29a2.42,2.42,0,0,0-1.62.16c-.71.47-.71,1.5-.63,2.35.86,9.15,1.44,18.8-2.49,27.11-1,2.06-2.26,4.25-1.72,6.47a6.89,6.89,0,0,1-3.61-3c0,1.49.09,3,.13,4.47a22.39,22.39,0,0,1-9-10.3c-.26,1.32-.52,2.63-.79,3.94a47.81,47.81,0,0,1-7.29-11.9,4.19,4.19,0,0,0-1.3,2.67C310.63,210.6,309.16,207.53,309.86,204.5Z" transform="translate(-26.47 -83.9)"/></g><path class="cls-11" d="M239.37,276.77a46.82,46.82,0,0,1-14.19,21.71c-3.34,2.87-7.13,5.3-9.84,8.76-2.61,3.31-4.06,7.36-5.48,11.33-3.67,10.29-7.37,20.74-8.19,31.64a8.11,8.11,0,0,0,.39,3.86c.86,2,3,3,5,3.85,4.39,1.88,8.92,3.78,13.7,3.87s9.92-2.11,11.9-6.46a10.69,10.69,0,0,0-1-10.06,14.33,14.33,0,0,0-8.53-5.77,23.64,23.64,0,0,1,16-22.06c3.19-1,6.72-1.4,9.37-3.45A27.68,27.68,0,0,0,252,310.2c4.09-4.62,9.74-7.51,15.24-10.3Z" transform="translate(-26.47 -83.9)"/><path class="cls-13" d="M225,350.7a1,1,0,0,0-1.93.53,10.17,10.17,0,0,1-1.85,8.92,1,1,0,0,0,0,1.42,1,1,0,0,0,1.41,0A12.26,12.26,0,0,0,225,350.7Z" transform="translate(-26.47 -83.9)"/><path class="cls-13" d="M230.55,348.18a1,1,0,0,0-1.94.54A21.46,21.46,0,0,1,228,359c-.38,1.23,1.55,1.76,1.93.53A23.6,23.6,0,0,0,230.55,348.18Z" transform="translate(-26.47 -83.9)"/><path class="cls-11" d="M298.55,350.59c-1.53-.21-3.57-.61-3.68-2.16a3.15,3.15,0,0,1,.56-1.68,143.7,143.7,0,0,0,18.09-60.35l-34.34,2.4c-1.76,4.58-3.38,17.67-3.56,22.57l2.17-1.76c-.66,7.47-1.33,15-3.57,22.15-1,3.08-2.23,6.15-2.26,9.37a42.74,42.74,0,0,0,.91,6.64,66.51,66.51,0,0,1,.38,11.47,12.43,12.43,0,0,0,.89,6.06c1.06,2.06,3.14,3.37,5.24,4.36a32.44,32.44,0,0,0,25.51.72,10.57,10.57,0,0,0,4.5-3c2.24-2.86,1.55-7.15-.43-10.2A15,15,0,0,0,298.55,350.59Z" transform="translate(-26.47 -83.9)"/><path class="cls-13" d="M302.22,361.66c-.31-1.25-2.24-.72-1.94.53a14.08,14.08,0,0,1-.52,8.32,1,1,0,0,0,.7,1.24,1,1,0,0,0,1.24-.7A16.18,16.18,0,0,0,302.22,361.66Z" transform="translate(-26.47 -83.9)"/><path class="cls-13" d="M306.81,357.19a1,1,0,0,0-1.23-.7,1,1,0,0,0-.7,1.24,15.56,15.56,0,0,1,.22,10.45c-.41,1.23,1.53,1.76,1.93.54A17.35,17.35,0,0,0,306.81,357.19Z" transform="translate(-26.47 -83.9)"/><path class="cls-1" d="M159.77,257.62c-14.1,6.82-18.43,24.76-10,38a30.35,30.35,0,0,1,5,18.72s-.5,11.52-7.15,21.36a19.12,19.12,0,0,0-1.78,3.1q-3.23,7.53,2.74,10.63a12.35,12.35,0,0,0,6.72,1.26l13.65-1s8.72-3.81,9.54-24.54c0,0-1.36-29.12,8.54-39.24,4.19-4.29,6.12-10.43,4.16-16.1C186.89,257.38,172.72,251.35,159.77,257.62Z" transform="translate(-26.47 -83.9)"/><path class="cls-17" d="M159.77,257.62c-14.1,6.82-18.43,24.76-10,38a30.35,30.35,0,0,1,5,18.72s-.5,11.52-7.15,21.36a19.12,19.12,0,0,0-1.78,3.1q-3.23,7.53,2.74,10.63a12.35,12.35,0,0,0,6.72,1.26l13.65-1s8.72-3.81,9.54-24.54c0,0-1.36-29.12,8.54-39.24,4.19-4.29,6.12-10.43,4.16-16.1C186.89,257.38,172.72,251.35,159.77,257.62Z" transform="translate(-26.47 -83.9)"/><path class="cls-1" d="M188.5,181.21a85.09,85.09,0,0,0-13.24-14.31,5.24,5.24,0,0,0-3.07-1.68,4.26,4.26,0,0,0-3.13,1.61c-2.16,2.29-3.16,5.42-3.85,8.49a116.18,116.18,0,0,0-1.9,13c-.36,3.35-.73,6.7-1.09,10.05l33.93.61A43.6,43.6,0,0,0,188.5,181.21Z" transform="translate(-26.47 -83.9)"/><path class="cls-5" d="M183.88,182.86a60.66,60.66,0,0,0-9.45-10.23,3.73,3.73,0,0,0-2.2-1.19,3.08,3.08,0,0,0-2.24,1.14,12.81,12.81,0,0,0-2.74,6.07,80.94,80.94,0,0,0-1.36,9.31l-.78,7.18,24.24.43A31,31,0,0,0,183.88,182.86Z" transform="translate(-26.47 -83.9)"/><path class="cls-1" d="M142.22,183.33a85.66,85.66,0,0,0-19.47-.79,5.27,5.27,0,0,0-3.36,1,4.27,4.27,0,0,0-1.09,3.35c.09,3.14,1.59,6.07,3.27,8.73a120.46,120.46,0,0,0,7.85,10.57l6.33,7.89,24.46-23.52A43.41,43.41,0,0,0,142.22,183.33Z" transform="translate(-26.47 -83.9)"/><path class="cls-5" d="M140.12,187.76a60.55,60.55,0,0,0-13.92-.57,3.76,3.76,0,0,0-2.4.7,3.05,3.05,0,0,0-.77,2.39,12.66,12.66,0,0,0,2.34,6.24,82.34,82.34,0,0,0,5.6,7.55l4.53,5.64L153,192.9A31,31,0,0,0,140.12,187.76Z" transform="translate(-26.47 -83.9)"/><path class="cls-1" d="M201.43,244.36c30.51,17.59,46.67,46.65,52.49,84l-57.6,27.81-1.27-1.06a98.94,98.94,0,0,1-31.49-47.33l-.09-.31L151,265.77Z" transform="translate(-26.47 -83.9)"/><g class="cls-18"><path class="cls-19" d="M224.12,250.84c-3.29-1.27-6.65-2.38-10.22-1.76a8.83,8.83,0,0,0-6.81,5.84c-1,2.65-1.07,5.42-2.61,7.72a12.19,12.19,0,0,1-5.58,4.21,17.32,17.32,0,0,1-8,1c-3.37-.28-6.71-1-10.1-.59a12.05,12.05,0,0,0-8.46,4.65c-1.71,2.26-2.72,5.05-4.45,7.23a16,16,0,0,1-15.49,5.68,1.89,1.89,0,0,0-2.27,1.29,1.86,1.86,0,0,0,1.29,2.27,19.84,19.84,0,0,0,16.47-4,21.67,21.67,0,0,0,5.29-6.73c1.3-2.38,2.59-4.89,5.21-6,2.91-1.24,6.28-.79,9.32-.42a28.34,28.34,0,0,0,9.46,0c5.56-1.16,10.57-4.83,12.2-10.42.82-2.8.9-6.33,3.87-7.67,3.12-1.41,6.84.1,9.91,1.28a1.85,1.85,0,0,0,2.27-1.29A1.88,1.88,0,0,0,224.12,250.84Z" transform="translate(-26.47 -83.9)"/><path class="cls-19" d="M249.55,276a1.87,1.87,0,0,0-2.45.91c-2.07,5.52-8,7.78-13.28,9.36a73.15,73.15,0,0,0-9.58,3.29,40.29,40.29,0,0,0-8.37,5.18c-5.08,4.1-8.93,9.55-14.26,13.36a18.21,18.21,0,0,1-8.2,3.45c-3.27.43-6.55,0-9.83-.14a28.9,28.9,0,0,0-11.45,1.52A62.28,62.28,0,0,0,162,318.1a1.86,1.86,0,0,0-.41,2.58,1.9,1.9,0,0,0,2.58.42,59.53,59.53,0,0,1,8.77-4.51,24.24,24.24,0,0,1,9.65-1.54c3.4.12,6.8.58,10.2.3a21.27,21.27,0,0,0,9.45-3.22c5.63-3.47,9.54-8.89,14.42-13.22a37.17,37.17,0,0,1,7.81-5.35,55.78,55.78,0,0,1,9.56-3.49c6.47-1.91,13.85-4.72,16.43-11.6A1.9,1.9,0,0,0,249.55,276Z" transform="translate(-26.47 -83.9)"/><path class="cls-19" d="M265,298.27a1.87,1.87,0,0,0-2.53-.66c-5.66,3.84-12.49,5.09-19.15,6-3.43.47-7.05.62-10.36,1.67a12.64,12.64,0,0,0-4.79,2.73,23.66,23.66,0,0,0-3.28,4,19,19,0,0,1-6.18,6,22.43,22.43,0,0,1-8.12,2.58,33.43,33.43,0,0,1-9.06-.16c-3.93-.62-7.77-1.67-11.73-2.12a22.08,22.08,0,0,0-12,1.71,19.8,19.8,0,0,0-8.31,7.39c-1.28,2,1.92,3.88,3.19,1.87a16.28,16.28,0,0,1,6.56-5.86,18,18,0,0,1,9.71-1.5c3.82.34,7.54,1.41,11.32,2a38,38,0,0,0,9.53.43c6.21-.59,12.44-2.94,16.42-7.95,1.94-2.45,3.43-5.55,6.31-7s6.41-1.55,9.52-2c7.71-1,15.71-2.19,22.29-6.66A1.89,1.89,0,0,0,265,298.27Z" transform="translate(-26.47 -83.9)"/><path class="cls-19" d="M260.13,321.11a26.13,26.13,0,0,0-9.1-.77,11.29,11.29,0,0,0-7.19,4.12c-1.7,2.06-3,4.45-4.85,6.36a20.79,20.79,0,0,1-6.27,4.24c-5.19,2.35-10.94,2.84-16.56,3.09-6.34.29-12.8.28-19,2-5.87,1.65-11.43,4.85-14.74,10.11-1.28,2,1.92,3.87,3.19,1.86,2.58-4.1,7-6.66,11.52-8.1,5.71-1.8,11.73-1.88,17.66-2.12s11.71-.63,17.22-2.63a26.54,26.54,0,0,0,7.07-3.71,24.69,24.69,0,0,0,5.49-5.91c1.51-2.21,3-4.6,5.72-5.41,2.86-.85,6-.18,8.82.43a1.89,1.89,0,0,0,2.27-1.3A1.87,1.87,0,0,0,260.13,321.11Z" transform="translate(-26.47 -83.9)"/><path class="cls-19" d="M240,258.62a1.87,1.87,0,0,0-2.53-.66,342.39,342.39,0,0,1-29.54,18.16,151.46,151.46,0,0,1-15.39,7.19,145.69,145.69,0,0,1-16.94,5.41c-6.6,1.72-13.25,3.27-19.68,5.56a1.89,1.89,0,0,0-1.29,2.27,1.86,1.86,0,0,0,2.27,1.29c11.38-4,23.37-5.94,34.68-10.21a185.1,185.1,0,0,0,31.25-15.81c5.59-3.42,11.06-7,16.51-10.67A1.89,1.89,0,0,0,240,258.62Z" transform="translate(-26.47 -83.9)"/></g><path class="cls-14" d="M213.75,317.53c-.65-14.3-5.11-28.64-13.83-39.48S178,260.23,164.69,261l-22.94-5.88c-1.88,12.64-2.62,38.95,8.29,58.86.93-2.6,2.67-6.3,3.6-8.9a15.19,15.19,0,0,0,7.23,14.24c.38-1.73.77-3.45,1.15-5.17a29.28,29.28,0,0,0,3.73,16.8c.85-3.14,1.69-6.28,2.54-9.42,4.87,14.15,17,25.12,30.82,27.88,4.45-3.88,9-7.92,11.7-13.37S214,323.86,213.75,317.53Z" transform="translate(-26.47 -83.9)"/><path class="cls-14" d="M214,220.51l-1.63-.56c1.36,7.78-3.56,11.46-3.56,11.46v-2.73c-1.76,6.68-4.63,8.28-4.63,8.28v-4.05l-1.8,4.6c5.63,2,5.21,8.49,5.21,8.49l-2.45-1.91c.27,4.91-4.91,5.73-4.91,5.73l1.09-2.46c-32.58,12-27.81,41.32-27.81,41.32-26.32-4.92-30.54-23.6-30.54-23.6l.27,4.78c-3.55-3.68-4-11.59-4-11.59l-1.5,4c-2.19-9,2.79-15,6-17.83l-1.19-2.21c-13.63,1.5-14.18-9.41-14.18-9.41l-.13,3.13c-3.13-2.58-3.27-8.85-3.27-8.85a14.91,14.91,0,0,0-1.1,5.45c-2.72-4.36,0-11.72,0-11.72l.82-1.7a27.42,27.42,0,0,1,24.49-3.57c2.38.84,4.74,2,7.27,2,4.17-.16,7.56-3.82,11.74-4.12,3.05-.23,5.93,1.39,9,1.73,4.77.56,9.27-2,13.87-3.38a29.28,29.28,0,0,1,20.58,1.69C214.18,217.46,214,220.51,214,220.51Z" transform="translate(-26.47 -83.9)"/><path class="cls-20" d="M146.31,246.37a12,12,0,0,0-3.93,12.92c.25.75,1.44.43,1.19-.33a10.85,10.85,0,0,1,3.61-11.72C147.8,246.75,146.92,245.89,146.31,246.37Z" transform="translate(-26.47 -83.9)"/><path class="cls-20" d="M153.79,296.31a47.14,47.14,0,0,1-6.34-33.05,46.34,46.34,0,0,1,2.68-9.24c.3-.73-.89-1.05-1.19-.32a48.27,48.27,0,0,0-.55,34.34,46.93,46.93,0,0,0,4.33,8.9C153.14,297.61,154.21,297,153.79,296.31Z" transform="translate(-26.47 -83.9)"/><path class="cls-20" d="M149.25,303.16a26.65,26.65,0,0,1-4.21-18.3c.11-.78-1.08-1.11-1.19-.33a28,28,0,0,0,4.34,19.25C148.62,304.44,149.69,303.82,149.25,303.16Z" transform="translate(-26.47 -83.9)"/><path class="cls-20" d="M165.14,312a69,69,0,0,1-7.79-38.14c.06-.79-1.17-.78-1.24,0a70.65,70.65,0,0,0,4.33,30.75,73,73,0,0,0,3.63,8C164.45,313.32,165.51,312.7,165.14,312Z" transform="translate(-26.47 -83.9)"/><path class="cls-20" d="M172.13,303a49.11,49.11,0,0,1-4.55-21.54.62.62,0,0,0-1.24,0,50.68,50.68,0,0,0,4.72,22.17C171.4,304.32,172.46,303.7,172.13,303Z" transform="translate(-26.47 -83.9)"/><path class="cls-20" d="M195.08,237.48a.62.62,0,0,0-.33,1.19A6.11,6.11,0,0,1,199,245a.61.61,0,0,0,.61.62.64.64,0,0,0,.62-.62A7.32,7.32,0,0,0,195.08,237.48Z" transform="translate(-26.47 -83.9)"/><path class="cls-20" d="M160.79,246.85a7.88,7.88,0,0,1-2.33-7c.14-.78-1.05-1.11-1.19-.33A9.21,9.21,0,0,0,158.5,246a20.77,20.77,0,0,1-6.57-4.36.63.63,0,0,0-1,.6c.23,1.06.46,2.11.68,3.17a16.92,16.92,0,0,1-6.29-7.64c-.29-.72-1.49-.4-1.19.33a18.3,18.3,0,0,0,8.07,9.11.62.62,0,0,0,.91-.69c-.2-.91-.39-1.82-.58-2.73a22,22,0,0,0,7.71,4.13A.62.62,0,0,0,160.79,246.85Z" transform="translate(-26.47 -83.9)"/><path class="cls-20" d="M162.45,251.48a37.63,37.63,0,0,0-4,14.41c0,.79,1.18.79,1.24,0a36.06,36.06,0,0,1,3.86-13.78C163.87,251.4,162.81,250.78,162.45,251.48Z" transform="translate(-26.47 -83.9)"/><path class="cls-1" d="M214.92,279c-.6,4.59-1.44,9.14-2.46,13.64-2.57,11.37-6.25,22.53-9.92,33.63l-6.95,21a7.11,7.11,0,0,1-2,3.49c-1.38,1.1-3.33,1-5.09.9l-8.71-.64c-1.67-.12-3.53-.33-4.58-1.63s-.85-3.29-.55-5c.51-3,1.23-7.32,2-12.11.46-2.81,1-5.76,1.44-8.74a90.57,90.57,0,0,0-2.08-39.94c-2.71-9.39-3.66-21.73,4.47-31.92a20.22,20.22,0,0,1,19.3-7c6.73,1.41,11.88,7.31,14.07,13.83S215.81,272.19,214.92,279Z" transform="translate(-26.47 -83.9)"/><g class="cls-21"><path class="cls-1" d="M216.26,279.8c-2.56,11.38-10,35.39-13.72,46.49l-6.95,21a7.11,7.11,0,0,1-2,3.49c-1.38,1.1-3.33,1-5.09.9l-8.71-.64c-1.67-.12-3.53-.33-4.58-1.63s-2.18-5.58-.55-5C180.87,346.67,204.52,320.2,216.26,279.8Z" transform="translate(-26.47 -83.9)"/></g><path class="cls-17" d="M200.87,270.93a1.36,1.36,0,0,0-1.65.94,34.33,34.33,0,0,1-7.42,14.71,21.69,21.69,0,0,0-1.08-4.77,1.38,1.38,0,0,0-1.29-1,1.35,1.35,0,0,0-1.3,1,12.44,12.44,0,0,1-3.34,6.34l-.78-7.56a1.35,1.35,0,0,0-2.64-.36c-.44,1.16-.89,2.31-1.33,3.47a20.6,20.6,0,0,1-.74-8.3,1.34,1.34,0,0,0-1.34-1.35,1.38,1.38,0,0,0-1.34,1.35,22.77,22.77,0,0,0,2.27,12.65,1.35,1.35,0,0,0,1.34.64,1.4,1.4,0,0,0,1.12-1l.56-1.47c.15,1.51.31,3,.46,4.51a1.36,1.36,0,0,0,2,1.16,15.24,15.24,0,0,0,4.73-5.12,20.37,20.37,0,0,1,.13,3,1.35,1.35,0,0,0,2.29,1,36.79,36.79,0,0,0,10.27-18.21A1.38,1.38,0,0,0,200.87,270.93Z" transform="translate(-26.47 -83.9)"/><path class="cls-1" d="M211.58,213.38A29.28,29.28,0,0,0,191,211.69c-4.6,1.37-9.1,3.94-13.87,3.38-3-.34-5.92-2-9-1.73-4.18.3-7.57,4-11.74,4.12-2.53.09-4.89-1.11-7.27-2a27.42,27.42,0,0,0-24.49,3.57,76.2,76.2,0,0,1,15-21c13.7-13.49,34.91-16.48,51.1-6.13a37.39,37.39,0,0,1,9.8,9,54.82,54.82,0,0,0,6.93,7.67A23.11,23.11,0,0,1,211.58,213.38Z" transform="translate(-26.47 -83.9)"/><g class="cls-10"><path class="cls-1" d="M156.45,201.48c-.91-1.57-3.33-1.47-4.82-1a6.5,6.5,0,0,0-3.87,3.28c-.34.72.72,1.34,1.06.63a5.23,5.23,0,0,1,2.93-2.65,5.12,5.12,0,0,1,2-.31c.58,0,1.35.12,1.66.67A.62.62,0,0,0,156.45,201.48Z" transform="translate(-26.47 -83.9)"/><path class="cls-1" d="M174.62,199.44c.4-1.77,2.74-2.39,4.3-2.39a6.47,6.47,0,0,1,4.67,2c.54.58-.29,1.49-.83.91a5.2,5.2,0,0,0-3.58-1.66,5.07,5.07,0,0,0-2,.29c-.55.19-1.25.52-1.39,1.14A.62.62,0,0,1,174.62,199.44Z" transform="translate(-26.47 -83.9)"/></g><path class="cls-1" d="M255.06,340.16a18.64,18.64,0,0,1-3.43,6.38,32.22,32.22,0,0,1-4.21,4.37l-1,.86a83.31,83.31,0,0,1-9.25,6.78c-1.76,1.12-3.55,2.18-5.37,3.15a87.9,87.9,0,0,1-15.39,6.51c-1.84.6-3.69,1.11-5.56,1.58a96.14,96.14,0,0,1-22.51,2.85c-2,0-3.91,0-5.87-.1A101.89,101.89,0,0,1,164,370c-1.79-.4-3.58-.86-5.35-1.38a104.83,104.83,0,0,1-13.12-4.74c-.66-.3-1.33-.6-2-.94a25.1,25.1,0,0,1-4.24-2.55,12.5,12.5,0,0,1-3.71-4.34,12.27,12.27,0,0,1,.06-10.2c3.47-7.94,12.83-12.45,21.23-10.87.39.07.79.17,1.18.27a28.78,28.78,0,0,1,3.86,1.32c3.5,1.47,6.78,3.46,10.14,5.26a49.69,49.69,0,0,0,4.6,2.2,30.25,30.25,0,0,0,4.19,1.39,27.12,27.12,0,0,0,9,.63,34.92,34.92,0,0,0,4.84-.81,57.06,57.06,0,0,0,12.72-5.1q2.19-1.15,4.32-2.39c1.7-1,3.38-2,5-2.93s3.46-2,5.21-3c1.48-.85,3-1.67,4.49-2.47a67.8,67.8,0,0,1,8.11-3.64,42.14,42.14,0,0,1,5-1.52,32.85,32.85,0,0,1,4.39-.79l.94-.08c2.37-.2,7.88-.52,8.14.37C253,323.59,256.31,335.87,255.06,340.16Z" transform="translate(-26.47 -83.9)"/><g class="cls-10"><path class="cls-1" d="M158,335.2c-.39-.1-.79-.2-1.18-.27-.19.2-.39.38-.6.57h0a3.22,3.22,0,0,1-.36.24l-.63.41c-.53.31-1.08.59-1.64.86a49.1,49.1,0,0,0-6.2,3,12.51,12.51,0,0,0-5,6.44A37.58,37.58,0,0,0,141,354.2c0,.07-.06.44-.08.53,0,.31-.1.63-.16.93-.11.58-.23,1.17-.39,1.74s-.32,1.05-.51,1.56l-.23.55c-.11.26-.22.51-.35.75l0,.08a25.1,25.1,0,0,0,4.24,2.55,21.66,21.66,0,0,0,1.91-5.34c.31-1.45.48-2.95.66-4.43l.11-1c0-.11,0-.21.05-.32a1.18,1.18,0,0,1,0-.21c.1-.7.22-1.39.37-2.08a13.84,13.84,0,0,1,.5-1.78l.15-.4s0,0,0-.06a7,7,0,0,1,.48-.9c.1-.18.2-.33.31-.49a1,1,0,0,0,.07-.12c.17-.2.36-.41.54-.59s.42-.38.63-.58l.08-.05.1-.07a3.15,3.15,0,0,1,.27-.19c2-1.35,4.39-2.11,6.58-3.19a13,13,0,0,0,5.5-4.61A28.78,28.78,0,0,0,158,335.2Z" transform="translate(-26.47 -83.9)"/><path class="cls-1" d="M149.44,344.58l.1-.07-.09.07Z" transform="translate(-26.47 -83.9)"/><path class="cls-1" d="M176.64,344c-.11.54-.23,1.08-.35,1.62A57.8,57.8,0,0,1,164,370c-1.79-.4-3.58-.86-5.35-1.38.79-.84,1.55-1.7,2.29-2.59.34-.4.67-.82,1-1.24,0,0,0,0,0,0l.05,0a2.64,2.64,0,0,0,.21-.29l.45-.59c.61-.86,1.22-1.73,1.78-2.62a55.81,55.81,0,0,0,3.31-5.89,48.63,48.63,0,0,0,2.44-6.09,57.56,57.56,0,0,0,1.76-6.71c.05-.23.09-.45.12-.69A49.69,49.69,0,0,0,176.64,344Z" transform="translate(-26.47 -83.9)"/><path class="cls-1" d="M190,369.74c-.51,1-1.05,1.95-1.64,2.9-2,0-3.91,0-5.87-.1.37-.52.74-1,1.1-1.58a42.62,42.62,0,0,0,2.78-5c.19-.39.37-.79.55-1.2.05-.09.16-.38.17-.39.09-.22.17-.44.26-.67.31-.81.6-1.65.86-2.47a44.32,44.32,0,0,0,1.39-6.09l0-.25c0-.14,0-.27,0-.41s.06-.51.09-.79c.05-.51.08-1,.12-1.57,0-1,.07-1.94.07-2.91s-.06-2.12-.14-3.17V346a34.92,34.92,0,0,0,4.84-.81A43.88,43.88,0,0,1,190,369.74Z" transform="translate(-26.47 -83.9)"/><path class="cls-1" d="M217.55,360.9a40.77,40.77,0,0,1-1.15,7.31c-1.84.6-3.69,1.11-5.56,1.58A36.73,36.73,0,0,0,212.1,365c.11-.54.2-1.08.27-1.63,0-.12.06-.43.06-.44,0-.25.06-.49.09-.75.08-.91.14-1.83.16-2.75,0-1.09,0-2.17-.06-3.26,0-.5-.08-1-.13-1.5,0-.2-.05-.39-.07-.59a.35.35,0,0,0,0-.07.16.16,0,0,0,0-.1,37.21,37.21,0,0,0-1.28-5.6c-.29-1-.65-2-1-2.93,0,0-.16-.39-.19-.44s-.15-.34-.23-.51c-.16-.36-.34-.73-.51-1.09a33.78,33.78,0,0,0-1.79-3.22q2.19-1.15,4.32-2.39A39.86,39.86,0,0,1,217.55,360.9Z" transform="translate(-26.47 -83.9)"/><path class="cls-1" d="M237.16,358.55c-1.76,1.12-3.55,2.18-5.37,3.15a6,6,0,0,0,.14-.74c0-.27.09-.55.13-.82l0-.37c.07-.49.11-1,.15-1.49a35.34,35.34,0,0,0-.1-6.34c0-.16,0-.33-.06-.49,0,0,0-.1,0-.17s0-.15,0-.17,0-.24-.06-.36c-.07-.5-.17-1-.27-1.47a30.39,30.39,0,0,0-.75-3c-.28-.92-.59-1.83-1-2.72,0-.15-.11-.28-.17-.42s-.16-.39-.26-.59c-.19-.42-.38-.84-.59-1.25a36.22,36.22,0,0,0-3.05-5l-.48-.65,0,0c-.05-.08-.11-.14-.16-.21-.3-.36-.58-.72-.89-1.06-.65-.77-1.33-1.5-2-2.2-.15-.13-.28-.28-.43-.42,1.48-.85,3-1.67,4.49-2.47.22.2.43.43.63.65a38.45,38.45,0,0,1,10.17,23.53A39.76,39.76,0,0,1,237.16,358.55Z" transform="translate(-26.47 -83.9)"/><path class="cls-1" d="M251.63,346.39v.15a32.22,32.22,0,0,1-4.21,4.37l-1,.86c0-.41.08-.83.12-1.25a42.06,42.06,0,0,0,.12-5.72,38.14,38.14,0,0,0-1.87-10.14c-.27-.83-.57-1.66-.89-2.47-.07-.2-.16-.39-.23-.58a1.2,1.2,0,0,1-.06-.17.79.79,0,0,1-.08-.16l-.52-1.15a42.92,42.92,0,0,0-2.54-4.6q-.45-.73-1-1.44a32.85,32.85,0,0,1,4.39-.79l.94-.08c.23.35.45.74.68,1.11A44.81,44.81,0,0,1,251.63,346.39Z" transform="translate(-26.47 -83.9)"/></g><path class="cls-16" d="M182.33,216.7c-.92,2.35-3.64,3.06-5.92,3.1-2.12,0-5.77.13-6.7-2.28a.62.62,0,0,0-1.21.17c-.23,2.92-3.83,4.43-6.27,5.05-2.65.66-5.6.22-7.38-2-.49-.62-1.36.26-.87.87,2.11,2.65,5.75,3.11,8.85,2.25,2.54-.69,5.53-2.14,6.55-4.68,1.66,1.78,4.69,1.9,7,1.86,2.9,0,6-1.1,7.11-4C183.81,216.28,182.62,216,182.33,216.7Z" transform="translate(-26.47 -83.9)"/><path class="cls-20" d="M174.65,223.82a5.87,5.87,0,0,1-3.89,2.83,5.78,5.78,0,0,1-4.86-1.32c-.6-.52-1.47.35-.87.87a6.94,6.94,0,0,0,10.68-1.75A.62.62,0,0,0,174.65,223.82Z" transform="translate(-26.47 -83.9)"/><path class="cls-16" d="M174,211.44a2.39,2.39,0,0,0-1.77-.59,18.88,18.88,0,0,0-5.46.42c-1.39.36-4.06,1.18-3.46,3.1a4,4,0,0,0,.77,1.25,14.87,14.87,0,0,0,3.37,2.91,3.25,3.25,0,0,0,1.7.61,3.12,3.12,0,0,0,1.93-.89,9.51,9.51,0,0,0,3.12-5.3,2,2,0,0,0-.08-1.35A1,1,0,0,0,174,211.44Z" transform="translate(-26.47 -83.9)"/><path class="cls-16" d="M183.57,207.11a5.35,5.35,0,0,1,0,.55,3.68,3.68,0,0,1-7.3-.94C176.76,202.14,183.6,202.89,183.57,207.11Z" transform="translate(-26.47 -83.9)"/><path class="cls-16" d="M157.52,209.5a5.28,5.28,0,0,1,0,.55,3.68,3.68,0,0,1-7.3-.94C150.71,204.53,157.56,205.28,157.52,209.5Z" transform="translate(-26.47 -83.9)"/><path class="cls-16" d="M210.24,201.05a46.49,46.49,0,0,0-20.16,10.38c-.6.53.28,1.4.87.87a45.14,45.14,0,0,1,19.62-10.06C211.34,202.06,211,200.88,210.24,201.05Z" transform="translate(-26.47 -83.9)"/><path class="cls-16" d="M215.51,208.2A72.59,72.59,0,0,0,190,213c-.74.28-.42,1.48.32,1.19a71.75,71.75,0,0,1,25.18-4.71A.62.62,0,0,0,215.51,208.2Z" transform="translate(-26.47 -83.9)"/><path class="cls-16" d="M212.89,219.74a87.38,87.38,0,0,0-21.41-4.92c-.79-.08-.78,1.16,0,1.24a85.94,85.94,0,0,1,21.09,4.87C213.31,221.2,213.63,220,212.89,219.74Z" transform="translate(-26.47 -83.9)"/><path class="cls-16" d="M124.39,209a46.53,46.53,0,0,1,22,5.32c.7.37.05,1.42-.65,1.05a45,45,0,0,0-21.44-5.13C123.56,210.21,123.6,209,124.39,209Z" transform="translate(-26.47 -83.9)"/><path class="cls-16" d="M121,217.15a72.58,72.58,0,0,1,25.9-1.41c.78.1.75,1.33,0,1.23a71.89,71.89,0,0,0-25.57,1.38A.62.62,0,0,1,121,217.15Z" transform="translate(-26.47 -83.9)"/><path class="cls-16" d="M126.23,227.75a87.54,87.54,0,0,1,19.65-9.85c.74-.26,1,.94.29,1.2a86.18,86.18,0,0,0-19.34,9.73C126.17,229.27,125.58,228.19,126.23,227.75Z" transform="translate(-26.47 -83.9)"/><path class="cls-22" d="M400.3,355.61l.73-.21a3.64,3.64,0,0,1,4.4,4.85l0,.06a6.44,6.44,0,0,0-1,3,4.63,4.63,0,0,0,1.48,2.58,2.87,2.87,0,0,1-2.47.74,5.65,5.65,0,0,1-2.42-1.06,8.14,8.14,0,0,1-3.22-4.37,6,6,0,0,1,0-3.21A3.54,3.54,0,0,1,400.3,355.61Z" transform="translate(-26.47 -83.9)"/><path class="cls-16" d="M411.78,364.29a21.38,21.38,0,0,1,4.45.18,7.72,7.72,0,0,1,4,1.85l-14.24.86-2.43-1.53A24.36,24.36,0,0,1,411.78,364.29Z" transform="translate(-26.47 -83.9)"/><path class="cls-16" d="M390.57,366.36a3.51,3.51,0,0,1,1.21-.47,30.69,30.69,0,0,1,12.08-.21l.44-.08a13.34,13.34,0,0,1,11.92,3c-4.65.56-9.33-.58-14-.85-4.09-.23-8.21.19-12.27-.34A1.34,1.34,0,0,1,390.57,366.36Z" transform="translate(-26.47 -83.9)"/><path class="cls-22" d="M312.55,359.77a10.9,10.9,0,0,0,5.62,5.32,21.08,21.08,0,0,0,5.44,1.86c11.12,2.54,22.47,2.76,33.84,2,7.24-.48,14.48-1.37,21.68-2.32s14.53-.58,21.25-3.28,12.94-7,17-13,4.91-13.3,5.35-20.73c.2-3.11.45-6.22.79-9.32.51-4.88,1.22-9.73,2.19-14.54l.26-1.34c1.18-5.87,3.05-11.85,2.5-17.8s-3-12.2-8-15.48c-18.15-11.93-32.92.73-35.07,3.37s-3.18,6.37-3.62,9.91a38.37,38.37,0,0,1-1,6.32,8.08,8.08,0,0,1-3.74,5,3.9,3.9,0,0,0,5.09-1,6.34,6.34,0,0,1-1.83,4.45,5.6,5.6,0,0,0,3.5-.59c-.12,2.36-.27,4.71-.59,7.05-1.47,10.89-6.48,20.94-11.41,30.76q-4.1,8.16-8.19,16.31c-1.58,3.15-3.32,6.47-6.37,8.21-4.67,2.69-10.67.71-15.18-2.24-.29-.18-.56-.36-.83-.56a24.89,24.89,0,0,1-3.78-3.48c-1.74-2-3.2-4.31-5.36-5.86a5.25,5.25,0,0,0-3.63-1.17,2.84,2.84,0,0,0-2.44,2.15l-.75-.07a10.9,10.9,0,0,0-4.64-1.83,5.54,5.54,0,0,0-5.19,2.11,3.9,3.9,0,0,0-.15,4l-.05,0-.17.29a2.38,2.38,0,0,0-1.37.17,3.12,3.12,0,0,0-1.63,2.37A5.32,5.32,0,0,0,312.55,359.77Z" transform="translate(-26.47 -83.9)"/><path class="cls-14" d="M357.45,369c7.24-.48,14.48-1.37,21.68-2.32s14.53-.58,21.25-3.28,12.94-7,17-13,4.91-13.3,5.35-20.73c.2-3.11.45-6.22.79-9.32a10.66,10.66,0,0,0-3.28-2,11.39,11.39,0,0,0-12.65,3.53c-2.62,3.33-3.1,7.8-3.68,12-1.12,8.1-3.36,16.75-9.76,21.86-5.65,4.51-13.3,5.28-20.44,6.49C367.84,363.18,361.59,364.93,357.45,369Z" transform="translate(-26.47 -83.9)"/><path class="cls-14" d="M388.42,285.4a18.21,18.21,0,0,0,.11,1.91c.71,6.55,5.85,11.7,10.84,10.85s7.88-7.87,7.29-14.45C405.26,267.86,388.32,270.77,388.42,285.4Z" transform="translate(-26.47 -83.9)"/><path class="cls-1" d="M411.22,303.77a13.92,13.92,0,0,0,5,6.56,9.58,9.58,0,0,0,5.64,1.93,8,8,0,0,0,6-3.15,11.58,11.58,0,0,0,2.16-4.6,5.23,5.23,0,0,0-3.61-.24c-1.39.35-2.7,1-4.09,1.37a8.17,8.17,0,0,1-6.73-1.11c-2.36-1.61-4-4.6-4.8-7.81l-.07-.31A13.51,13.51,0,0,0,411.22,303.77Z" transform="translate(-26.47 -83.9)"/><path class="cls-16" d="M410.66,296.41l.07.31c.76,3.21,2.44,6.2,4.8,7.81a8.17,8.17,0,0,0,6.73,1.11c1.39-.36,2.7-1,4.09-1.37a5.23,5.23,0,0,1,3.61.24,3.07,3.07,0,0,1,.58.33,4.55,4.55,0,0,1,1.7,4.57,23.74,23.74,0,0,0,6.77-15,24.07,24.07,0,0,0,0-3.29c-.05-.72-.12-1.44-.23-2.15-1.41-9.52-8.89-16.74-16.47-15.64a12.26,12.26,0,0,0-6.61,2.92c-2.73,2.47-4.35,6.5-5.1,10.69A24.54,24.54,0,0,0,410.66,296.41Z" transform="translate(-26.47 -83.9)"/><path class="cls-16" d="M405.24,294.14a5.23,5.23,0,0,1,2.69-4.5l.15-.13a1.43,1.43,0,0,1,.61-.26h.12a.64.64,0,0,1,.63.44.78.78,0,0,1,0,.67.76.76,0,0,1-.52.52l-.14.07c.19.53.52,1.17.59,1.33.32.75.67,1.49,1,2.23.48.95,1,1.87,1.53,2.79a48.61,48.61,0,0,0,3.5,4.35c.37.41-.21,1-.58.63-.9-1-1.76-2-2.58-3.08a.38.38,0,0,1-.33-.19c-.25-.4-.47-.82-.71-1.22-.66-.93-1.31-1.87-1.9-2.84-.4-.66-.78-1.32-1.15-2-.17-.31-.44-.7-.61-1.09a11.5,11.5,0,0,0-1.49,2.48A.44.44,0,0,1,405.24,294.14Z" transform="translate(-26.47 -83.9)"/><path class="cls-14" d="M360.1,347.36a3.37,3.37,0,0,0,1.93,1.17c1.61.36,3.31-.37,4.78-1,.39-.16.6.39.38.65-.87,1,.15,2.34,1.12,2.69a8.62,8.62,0,0,0,4.28,0c2.61-.49,5.36-1.9,6.12-4.66a.39.39,0,0,1,.75.2,5.32,5.32,0,0,0,3,5.51,6.93,6.93,0,0,0,4,.69,23.13,23.13,0,0,0,5.91-5.06,18.38,18.38,0,0,0,4.13-9.41,5.63,5.63,0,0,1-1.62,1,4.83,4.83,0,0,1-4.12-.09,4.65,4.65,0,0,1-2.15-2.31,10,10,0,0,1-4.81,4.15c-1.87.74-4.47.94-5.94-.6-.6,2.81-3.73,4.57-6.21,5.47-2.7,1-6.27.81-8-1.8a5.14,5.14,0,0,1-.57-1.21C362,344.3,361.05,345.83,360.1,347.36Z" transform="translate(-26.47 -83.9)"/><path class="cls-8" d="M363,342.79a5.14,5.14,0,0,0,.57,1.21c1.76,2.61,5.33,2.78,8,1.8,2.48-.9,5.61-2.66,6.21-5.47,1.47,1.54,4.07,1.34,5.94.6a10,10,0,0,0,4.81-4.15,4.65,4.65,0,0,0,2.15,2.31,4.83,4.83,0,0,0,4.12.09,5.63,5.63,0,0,0,1.62-1,11.21,11.21,0,0,0,.11-1.3c0-.39,0-.79,0-1.18a14.3,14.3,0,0,0-8.95-12.51,11.86,11.86,0,0,0-7.66-.52c-5.42,1.55-8.1,6.75-11,11.08-.59.87-1.17,1.72-1.73,2.6-.16.22-.32.46-.47.69-1,1.49-1.95,3-2.91,4.49-.07.13-.16.25-.23.38h0C363.36,342.19,363.17,342.48,363,342.79Z" transform="translate(-26.47 -83.9)"/><path class="cls-8" d="M353.7,358.61a1.2,1.2,0,0,0,1.22.68h.14a2.18,2.18,0,0,0-.65.46,1.41,1.41,0,0,0-.13,1.94,1.93,1.93,0,0,0,1.73.26,14.79,14.79,0,0,0,4.32-1.55c-.51.25-.37,1.09.11,1.39a2.36,2.36,0,0,0,1.66.08c6.51-1.34,12.55-4.44,18.16-8-.39.22-.21.9.2,1.08a1.82,1.82,0,0,0,1.33-.12A29.8,29.8,0,0,0,385,353.4c.49-.25,1-.51,1.44-.79a6.93,6.93,0,0,1-4-.69,5.32,5.32,0,0,1-3-5.51.39.39,0,0,0-.75-.2c-.76,2.76-3.51,4.17-6.12,4.66a8.62,8.62,0,0,1-4.28,0c-1-.35-2-1.72-1.12-2.69.22-.26,0-.81-.38-.65-1.47.6-3.17,1.33-4.78,1a3.37,3.37,0,0,1-1.93-1.17c-.15.23-.29.46-.43.69q-2.82,4.54-5.59,9.11A1.78,1.78,0,0,0,353.7,358.61Z" transform="translate(-26.47 -83.9)"/><path class="cls-16" d="M396,283.64a2.69,2.69,0,1,0,5.36-.29C401,280,396,280.56,396,283.64Z" transform="translate(-26.47 -83.9)"/><path class="cls-22" d="M373,359.48l.73-.21a3.64,3.64,0,0,1,4.4,4.85l0,.06a6.57,6.57,0,0,0-1,3,4.64,4.64,0,0,0,1.49,2.58,2.9,2.9,0,0,1-2.47.74,5.55,5.55,0,0,1-2.42-1.07,8,8,0,0,1-3.22-4.36,5.93,5.93,0,0,1,0-3.21A3.57,3.57,0,0,1,373,359.48Z" transform="translate(-26.47 -83.9)"/><path class="cls-16" d="M384.52,368.16a20.59,20.59,0,0,1,4.44.17,7.81,7.81,0,0,1,4,1.86l-14.24.85-2.43-1.52A24.11,24.11,0,0,1,384.52,368.16Z" transform="translate(-26.47 -83.9)"/><path class="cls-16" d="M363.31,370.22a3.56,3.56,0,0,1,1.2-.46,30.93,30.93,0,0,1,12.09-.22l.44-.08a13.4,13.4,0,0,1,11.92,3c-4.66.57-9.33-.57-14-.84-4.08-.24-8.2.19-12.26-.35A1.35,1.35,0,0,1,363.31,370.22Z" transform="translate(-26.47 -83.9)"/><path class="cls-11" d="M129.59,288.69a12.2,12.2,0,0,1-4.29,3.84,11.23,11.23,0,0,1-4.37,1.58,5.6,5.6,0,0,1-2.69-.34l-1.24-3.9a41.73,41.73,0,0,0,6.4-8.93c.51-.95,1.15-2,2.21-2.15a3.26,3.26,0,0,1,2.44,1.34,12.33,12.33,0,0,1,1.88,2.27,5,5,0,0,1,.37.73A6.26,6.26,0,0,1,129.59,288.69Z" transform="translate(-26.47 -83.9)"/><path class="cls-5" d="M129.59,288.69a12.2,12.2,0,0,1-4.29,3.84,11.23,11.23,0,0,1-4.37,1.58l-.21-.67a42.46,42.46,0,0,0,6.39-8.94c.51-.94,1.14-2,2.21-2.15a1.78,1.78,0,0,1,.61,0,5,5,0,0,1,.37.73A6.26,6.26,0,0,1,129.59,288.69Z" transform="translate(-26.47 -83.9)"/><path class="cls-11" d="M103.6,299.91a4,4,0,0,1-2.14,3.13,4.68,4.68,0,0,1-.59.3,8.63,8.63,0,0,1-4.57.27,14.36,14.36,0,0,1-5.81-2.25,10.81,10.81,0,0,1-2.87-2.89,8.87,8.87,0,0,1-1-1.94,2.43,2.43,0,0,1,0-2.06,2.51,2.51,0,0,1,1.92-.93c4.58-.57,9.09,1.2,13.36,2.94Z" transform="translate(-26.47 -83.9)"/><path class="cls-5" d="M101.46,303a4.68,4.68,0,0,1-.59.3,8.63,8.63,0,0,1-4.57.27,14.36,14.36,0,0,1-5.81-2.25,10.81,10.81,0,0,1-2.87-2.89c4.47-.46,8.87,1.27,13,3Z" transform="translate(-26.47 -83.9)"/><path class="cls-11" d="M111.3,368.07a2.87,2.87,0,0,0-2.19-1.18,12.53,12.53,0,0,0-6.39.66l-.08-.07a12.36,12.36,0,0,0-6.8,1.85,3.33,3.33,0,0,0-1,.88,1.41,1.41,0,0,0-.22,1.28c.26.67,1.08.89,1.79,1,3.79.5,7.62-.17,11.38-.83a5.62,5.62,0,0,0,3-1.18A2.11,2.11,0,0,0,111.3,368.07Z" transform="translate(-26.47 -83.9)"/><path class="cls-11" d="M141.25,368.07a2.87,2.87,0,0,1,2.19-1.18,12.54,12.54,0,0,1,6.39.66l.07-.07a12.37,12.37,0,0,1,6.81,1.85,3.45,3.45,0,0,1,1,.88,1.38,1.38,0,0,1,.21,1.28c-.26.67-1.08.89-1.79,1-3.78.5-7.61-.17-11.37-.83a5.59,5.59,0,0,1-3-1.18A2.08,2.08,0,0,1,141.25,368.07Z" transform="translate(-26.47 -83.9)"/><path class="cls-11" d="M157.9,356.33c-.55,5.61-3.54,11.36-8.74,13.52-5.64,2.34-12,0-18-1a39.87,39.87,0,0,0-17,.91c-3.3.91-6.6,2.27-10,2-4.57-.32-8.6-3.59-10.62-7.7A21.38,21.38,0,0,1,92,350.67c2.88-15,7.91-18.53,7.91-18.53S95.7,330.5,95,329.55c-1.83-2.45-2.1-5.67-2.2-8.76,0-.22,0-.44,0-.65-.13-4.62-.25-9.33,1-13.77a24.6,24.6,0,0,1,13.35-15.08,25.23,25.23,0,0,1,13.63-2.46c7.37.95,12.64,5.85,18,10.59,0,0,0,.05.07.06,2.38,2.13,4.81,4.35,6,7.28a8.93,8.93,0,0,1,.54,3.14,47.2,47.2,0,0,0,4.42,18c1.25,2.7,2.52,5.52,3.5,7.81C156.13,342.24,158.6,349.24,157.9,356.33Z" transform="translate(-26.47 -83.9)"/><path class="cls-14" d="M157.9,356.33c-.55,5.61-3.54,11.36-8.74,13.52-5.64,2.34-12,0-18-1a39.87,39.87,0,0,0-17,.91c-3.3.91-6.6,2.27-10,2-4.57-.32-8.6-3.59-10.62-7.7A21.38,21.38,0,0,1,92,350.67c2.88-15,7.91-18.53,7.91-18.53S95.7,330.5,95,329.55c-1.83-2.45-2.1-5.67-2.2-8.76A25.61,25.61,0,0,1,109,315.33a5.19,5.19,0,0,0,3.93-1.72,11.27,11.27,0,0,1,9.7-3.4,5,5,0,0,0,4.93-2.34,19.59,19.59,0,0,1,11.22-8.39c2.38,2.13,4.81,4.35,6,7.28a8.93,8.93,0,0,1,.54,3.14,47.2,47.2,0,0,0,4.42,18c1.25,2.7,2.52,5.52,3.5,7.81C156.13,342.24,158.6,349.24,157.9,356.33Z" transform="translate(-26.47 -83.9)"/><path class="cls-16" d="M126.88,304.8c0,.15,0,.3,0,.46a3,3,0,0,1-6-.78C121.26,300.7,126.91,301.32,126.88,304.8Z" transform="translate(-26.47 -83.9)"/><path class="cls-16" d="M110.49,311a3.4,3.4,0,0,1,0,.45,3,3,0,0,1-6-.78C104.87,306.93,110.52,307.54,110.49,311Z" transform="translate(-26.47 -83.9)"/><path class="cls-16" d="M124.63,312.75a.6.6,0,0,0-.59.59,3,3,0,0,1-4.81,1.94.61.61,0,0,0-1,.43,2.68,2.68,0,0,1-4,2,.6.6,0,0,0-.6,1,3.93,3.93,0,0,0,3.9.07,3.84,3.84,0,0,0,1.76-2.2,4.23,4.23,0,0,0,3.5.12,4.29,4.29,0,0,0,2.51-3.43C125.28,313,124.93,312.75,124.63,312.75Z" transform="translate(-26.47 -83.9)"/><path class="cls-5" d="M119.61,311h0s0,0,0-.05a1.55,1.55,0,0,0-1.34-1.17,3.47,3.47,0,0,0-1.39.22,8,8,0,0,0-1.35.57,2.25,2.25,0,0,0-.92.81,1.39,1.39,0,0,0,0,1.18,2.39,2.39,0,0,0,.83,1,6.79,6.79,0,0,0,1.15.7,2,2,0,0,0,1.34.2,1.65,1.65,0,0,0,.88-.6,4.48,4.48,0,0,0,.56-1,3.68,3.68,0,0,0,.38-1.3A1.57,1.57,0,0,0,119.61,311Z" transform="translate(-26.47 -83.9)"/><path class="cls-16" d="M135.13,310.35a61,61,0,0,0-8.64.57,52.61,52.61,0,0,1,7.67-4.42c.35-.16.07-.68-.28-.52a52.28,52.28,0,0,0-7.85,4.53,20.12,20.12,0,0,1,7.08-8.37c.32-.22,0-.74-.28-.53a20.84,20.84,0,0,0-7.59,9.2.24.24,0,0,0,0,.27.34.34,0,0,0,.13.44.3.3,0,0,0,.28.1,60.65,60.65,0,0,1,9.42-.67A.3.3,0,0,0,135.13,310.35Z" transform="translate(-26.47 -83.9)"/><path class="cls-16" d="M105.44,323.57a68.63,68.63,0,0,1,5.79-7.16,57.22,57.22,0,0,0-8.32,4.08c-.35.21-.6-.35-.25-.55a56.54,56.54,0,0,1,8.53-4.17A20.4,20.4,0,0,0,100,317c-.37.15-.63-.4-.25-.55a21,21,0,0,1,12.16-1.23.24.24,0,0,1,.19.2.32.32,0,0,1,.27.37.3.3,0,0,1-.08.3,68,68,0,0,0-6.37,7.79A.3.3,0,1,1,105.44,323.57Z" transform="translate(-26.47 -83.9)"/><g class="cls-23"><path class="cls-24" d="M105.62,303.83a4.85,4.85,0,0,0-3.2,5.2.6.6,0,0,0,1.19-.06,3.6,3.6,0,0,1,2.39-4,.6.6,0,0,0-.38-1.14Z" transform="translate(-26.47 -83.9)"/><path class="cls-24" d="M125.38,298a4.85,4.85,0,0,0-6.06.69.63.63,0,0,0-.06.85.61.61,0,0,0,.85.06,3.59,3.59,0,0,1,2.18-1.15,3.64,3.64,0,0,1,2.43.55.62.62,0,0,0,.83-.17A.61.61,0,0,0,125.38,298Z" transform="translate(-26.47 -83.9)"/></g><path class="cls-14" d="M129.93,334a7,7,0,0,1,2.82-3.26,4.49,4.49,0,0,1,5.3,7.11s-3.94,3.84-6.6,5.2a2.31,2.31,0,0,1-2.28.24,2.23,2.23,0,0,1-.73-1.78A15.32,15.32,0,0,1,129.93,334Z" transform="translate(-26.47 -83.9)"/><path class="cls-16" d="M130.36,334.78a12.76,12.76,0,0,0-2.29,5.92c0,.38.55.38.6,0a12,12,0,0,1,2.21-5.61C131.1,334.77,130.58,334.47,130.36,334.78Z" transform="translate(-26.47 -83.9)"/><path class="cls-16" d="M139.89,334.52a13,13,0,0,1-8.67,7.82.3.3,0,0,0,.16.58,13.58,13.58,0,0,0,9.08-8.24C140.6,334.32,140,334.16,139.89,334.52Z" transform="translate(-26.47 -83.9)"/><path class="cls-5" d="M127.19,341.33a2.83,2.83,0,0,1,2.61-1,3,3,0,0,1,1.83,2.22,7,7,0,0,1,.1,3.38l0,.26a3.35,3.35,0,0,1-.06,1.34,1.13,1.13,0,0,1-1,.83.74.74,0,0,1-.73-.62.74.74,0,0,1-.9.41,1,1,0,0,1-.59-.87.77.77,0,0,1-.76.59.76.76,0,0,1-.64-.79.64.64,0,0,1-.84.23,1.37,1.37,0,0,1-.56-1A5.8,5.8,0,0,1,127.19,341.33Z" transform="translate(-26.47 -83.9)"/><path class="cls-25" d="M129.77,344.38c.09-.37.66-.21.57.16a7,7,0,0,0,0,3.29.3.3,0,0,1-.58.16A7.6,7.6,0,0,1,129.77,344.38Z" transform="translate(-26.47 -83.9)"/><path class="cls-25" d="M128.19,345.4a.31.31,0,0,1,.3-.3.31.31,0,0,1,.3.3,7,7,0,0,0,.12,2,.32.32,0,0,1-.21.37.3.3,0,0,1-.37-.21A7.72,7.72,0,0,1,128.19,345.4Z" transform="translate(-26.47 -83.9)"/><path class="cls-25" d="M127.4,344.33a.31.31,0,0,1,.36-.21.3.3,0,0,1,.21.37,4.94,4.94,0,0,0-.31,2.55.31.31,0,0,1-.21.37.3.3,0,0,1-.37-.2A5.56,5.56,0,0,1,127.4,344.33Z" transform="translate(-26.47 -83.9)"/><path class="cls-14" d="M117.92,334a7,7,0,0,0-2.82-3.26,4.49,4.49,0,0,0-5.3,7.11s4,3.84,6.6,5.2a2.31,2.31,0,0,0,2.28.24,2.23,2.23,0,0,0,.73-1.78A15.21,15.21,0,0,0,117.92,334Z" transform="translate(-26.47 -83.9)"/><path class="cls-16" d="M117.49,334.78a12.65,12.65,0,0,1,2.29,5.92c0,.38-.55.38-.6,0a12.06,12.06,0,0,0-2.2-5.61C116.75,334.77,117.27,334.47,117.49,334.78Z" transform="translate(-26.47 -83.9)"/><path class="cls-16" d="M108,334.52a13,13,0,0,0,8.67,7.82.3.3,0,0,1-.15.58,13.57,13.57,0,0,1-9.09-8.24C107.25,334.32,107.83,334.16,108,334.52Z" transform="translate(-26.47 -83.9)"/><path class="cls-5" d="M120.66,341.33a2.82,2.82,0,0,0-2.61-1,3,3,0,0,0-1.83,2.22,7,7,0,0,0-.1,3.38l0,.26a3.35,3.35,0,0,0,.06,1.34,1.13,1.13,0,0,0,1,.83.74.74,0,0,0,.73-.62.74.74,0,0,0,.9.41,1,1,0,0,0,.59-.87.77.77,0,0,0,.76.59.76.76,0,0,0,.64-.79.65.65,0,0,0,.85.23,1.4,1.4,0,0,0,.56-1A5.84,5.84,0,0,0,120.66,341.33Z" transform="translate(-26.47 -83.9)"/><path class="cls-25" d="M118.08,344.38c-.09-.37-.66-.21-.57.16a6.91,6.91,0,0,1,0,3.29c-.09.37.49.53.58.16A7.6,7.6,0,0,0,118.08,344.38Z" transform="translate(-26.47 -83.9)"/><path class="cls-25" d="M119.66,345.4a.3.3,0,1,0-.6,0,7,7,0,0,1-.11,2,.3.3,0,1,0,.57.16A7.72,7.72,0,0,0,119.66,345.4Z" transform="translate(-26.47 -83.9)"/><path class="cls-25" d="M120.45,344.33a.3.3,0,1,0-.57.16,4.94,4.94,0,0,1,.31,2.55.31.31,0,0,0,.21.37.3.3,0,0,0,.37-.2A5.56,5.56,0,0,0,120.45,344.33Z" transform="translate(-26.47 -83.9)"/></g></g></svg>