<svg width="144" height="54" viewBox="0 0 144 54" fill="none" xmlns="http://www.w3.org/2000/svg">
<path d="M63.08 50.054C62.984 50.054 62.906 50.018 62.846 49.946C62.786 49.862 62.756 49.766 62.756 49.658C62.768 49.478 62.804 49.37 62.864 49.334C62.936 49.298 63.056 49.28 63.224 49.28C63.572 49.28 63.83 49.22 63.998 49.1C64.166 48.968 64.268 48.812 64.304 48.632C64.352 48.44 64.382 48.194 64.394 47.894V40.748C64.382 40.448 64.352 40.208 64.304 40.028C64.268 39.836 64.166 39.68 63.998 39.56C63.83 39.428 63.572 39.362 63.224 39.362H63.116C62.996 39.362 62.906 39.344 62.846 39.308C62.798 39.26 62.768 39.152 62.756 38.984C62.756 38.876 62.786 38.786 62.846 38.714C62.906 38.63 62.984 38.588 63.08 38.588C63.86 38.624 64.58 38.642 65.24 38.642H67.94C68.984 38.642 69.992 38.858 70.964 39.29C71.948 39.722 72.44 40.586 72.44 41.882C72.44 42.602 72.224 43.244 71.792 43.808C71.36 44.372 70.796 44.81 70.1 45.122C69.416 45.434 68.702 45.59 67.958 45.59C67.274 45.59 66.674 45.494 66.158 45.302V47.894C66.17 48.194 66.194 48.44 66.23 48.632C66.278 48.812 66.386 48.968 66.554 49.1C66.722 49.22 66.98 49.28 67.328 49.28H67.436C67.556 49.28 67.64 49.304 67.688 49.352C67.748 49.388 67.784 49.49 67.796 49.658C67.796 49.766 67.766 49.862 67.706 49.946C67.658 50.018 67.58 50.054 67.472 50.054C66.704 50.018 65.954 50 65.222 50C64.574 50 63.86 50.018 63.08 50.054ZM67.436 44.78C67.868 44.78 68.312 44.696 68.768 44.528C69.236 44.348 69.632 44.048 69.956 43.628C70.28 43.196 70.442 42.632 70.442 41.936C70.442 40.88 70.106 40.178 69.434 39.83C68.762 39.482 68.048 39.308 67.292 39.308C66.98 39.308 66.746 39.344 66.59 39.416C66.434 39.476 66.32 39.602 66.248 39.794C66.188 39.986 66.158 40.286 66.158 40.694V44.582C66.446 44.714 66.872 44.78 67.436 44.78ZM73.7453 50.054C73.6613 50.054 73.5893 50.018 73.5293 49.946C73.4813 49.874 73.4573 49.79 73.4573 49.694C73.4693 49.538 73.5053 49.448 73.5653 49.424C73.6253 49.388 73.7333 49.37 73.8893 49.37C74.2013 49.37 74.4233 49.316 74.5553 49.208C74.6873 49.1 74.7593 48.974 74.7713 48.83C74.7953 48.686 74.8073 48.458 74.8073 48.146V44.024C74.8073 43.712 74.7953 43.484 74.7713 43.34C74.7593 43.196 74.6873 43.07 74.5553 42.962C74.4233 42.854 74.2013 42.8 73.8893 42.8C73.7453 42.8 73.6373 42.782 73.5653 42.746C73.4933 42.698 73.4573 42.596 73.4573 42.44C73.4573 42.368 73.4813 42.302 73.5293 42.242C73.5773 42.17 73.6493 42.128 73.7453 42.116C74.5253 41.996 75.1673 41.84 75.6713 41.648C75.8753 41.588 76.0133 41.552 76.0853 41.54H76.1393C76.3313 41.54 76.4273 41.654 76.4273 41.882V42.998H76.4813C76.9013 42.578 77.3273 42.248 77.7593 42.008C78.1913 41.756 78.5813 41.63 78.9293 41.63C79.3253 41.63 79.6373 41.78 79.8653 42.08C80.1053 42.368 80.2253 42.704 80.2253 43.088C80.2253 43.424 80.1233 43.724 79.9193 43.988C79.7153 44.252 79.4333 44.384 79.0733 44.384C78.9053 44.384 78.7553 44.348 78.6233 44.276C78.5033 44.204 78.4373 44.144 78.4253 44.096C78.4373 44.072 78.4973 44 78.6053 43.88C78.7133 43.748 78.7673 43.598 78.7673 43.43C78.7673 43.214 78.7073 43.04 78.5873 42.908C78.4793 42.776 78.3293 42.71 78.1373 42.71C77.9333 42.71 77.6753 42.812 77.3633 43.016C77.0513 43.208 76.7453 43.454 76.4453 43.754V48.146C76.4453 48.458 76.4573 48.686 76.4813 48.83C76.5053 48.974 76.5833 49.1 76.7153 49.208C76.8473 49.316 77.0693 49.37 77.3813 49.37H77.4893C77.5853 49.37 77.6573 49.388 77.7053 49.424C77.7533 49.46 77.7833 49.55 77.7953 49.694C77.7953 49.79 77.7713 49.874 77.7233 49.946C77.6753 50.018 77.6033 50.054 77.5073 50.054C76.8113 50.018 76.1813 50 75.6173 50C75.0773 50 74.4533 50.018 73.7453 50.054ZM85.3895 50.216C84.4895 50.216 83.7215 50.024 83.0855 49.64C82.4615 49.256 81.9875 48.734 81.6635 48.074C81.3395 47.414 81.1775 46.682 81.1775 45.878C81.1775 45.17 81.3395 44.492 81.6635 43.844C81.9995 43.184 82.4735 42.65 83.0855 42.242C83.6975 41.834 84.3995 41.63 85.1915 41.63C86.2595 41.63 87.0815 41.906 87.6575 42.458C88.2335 42.998 88.5635 43.73 88.6475 44.654C88.6475 45.05 88.5395 45.32 88.3235 45.464C88.1075 45.608 87.7955 45.68 87.3875 45.68H83.0135C83.0135 46.796 83.2415 47.684 83.6975 48.344C84.1655 48.992 84.8855 49.316 85.8575 49.316C86.3735 49.316 86.8115 49.208 87.1715 48.992C87.5315 48.764 87.8735 48.386 88.1975 47.858C88.2575 47.798 88.3175 47.768 88.3775 47.768C88.4615 47.768 88.5335 47.792 88.5935 47.84C88.7135 47.912 88.7735 48.02 88.7735 48.164C88.7735 48.236 88.7615 48.29 88.7375 48.326C88.3655 48.926 87.8915 49.394 87.3155 49.73C86.7515 50.054 86.1095 50.216 85.3895 50.216ZM85.9475 44.996C86.5595 44.996 86.8835 44.744 86.9195 44.24C86.9195 43.688 86.7695 43.22 86.4695 42.836C86.1695 42.452 85.7435 42.26 85.1915 42.26C84.5795 42.26 84.0755 42.506 83.6795 42.998C83.2835 43.478 83.0615 44.144 83.0135 44.996H85.9475ZM93.3626 50.306C92.7746 50.306 92.2706 50.09 91.8506 49.658C91.4306 49.226 91.2206 48.608 91.2206 47.804V42.512L90.1766 42.548C90.1046 42.548 90.0446 42.518 89.9966 42.458C89.9486 42.386 89.9246 42.308 89.9246 42.224C89.9246 42.116 89.9426 42.026 89.9786 41.954C90.0266 41.87 90.0926 41.822 90.1766 41.81C90.5966 41.726 90.9206 41.594 91.1486 41.414C91.3886 41.222 91.5626 41.018 91.6706 40.802C91.7786 40.574 91.9106 40.232 92.0666 39.776C92.1266 39.62 92.2586 39.542 92.4626 39.542C92.5466 39.542 92.6306 39.566 92.7146 39.614C92.7986 39.65 92.8406 39.71 92.8406 39.794L92.7146 41.846L94.8206 41.72H94.8566C95.0126 41.72 95.0906 41.834 95.0906 42.062C95.0906 42.194 95.0666 42.32 95.0186 42.44C94.9826 42.548 94.9346 42.602 94.8746 42.602L92.8586 42.548V48.02C92.8586 48.416 92.9366 48.746 93.0926 49.01C93.2606 49.274 93.5306 49.406 93.9026 49.406C94.2746 49.406 94.6046 49.34 94.8926 49.208C95.0486 49.148 95.1446 49.118 95.1806 49.118C95.2646 49.118 95.3306 49.154 95.3786 49.226C95.4266 49.286 95.4746 49.37 95.5226 49.478C95.5346 49.502 95.5406 49.532 95.5406 49.568C95.5406 49.616 95.5046 49.67 95.4326 49.73C95.0846 49.958 94.7546 50.108 94.4426 50.18C94.1426 50.264 93.7826 50.306 93.3626 50.306ZM100.183 50.306C99.5949 50.306 99.0909 50.09 98.6709 49.658C98.2509 49.226 98.0409 48.608 98.0409 47.804V42.512L96.9969 42.548C96.9249 42.548 96.8649 42.518 96.8169 42.458C96.7689 42.386 96.7449 42.308 96.7449 42.224C96.7449 42.116 96.7629 42.026 96.7989 41.954C96.8469 41.87 96.9129 41.822 96.9969 41.81C97.4169 41.726 97.7409 41.594 97.9689 41.414C98.2089 41.222 98.3829 41.018 98.4909 40.802C98.5989 40.574 98.7309 40.232 98.8869 39.776C98.9469 39.62 99.0789 39.542 99.2829 39.542C99.3669 39.542 99.4509 39.566 99.5349 39.614C99.6189 39.65 99.6609 39.71 99.6609 39.794L99.5349 41.846L101.641 41.72H101.677C101.833 41.72 101.911 41.834 101.911 42.062C101.911 42.194 101.887 42.32 101.839 42.44C101.803 42.548 101.755 42.602 101.695 42.602L99.6789 42.548V48.02C99.6789 48.416 99.7569 48.746 99.9129 49.01C100.081 49.274 100.351 49.406 100.723 49.406C101.095 49.406 101.425 49.34 101.713 49.208C101.869 49.148 101.965 49.118 102.001 49.118C102.085 49.118 102.151 49.154 102.199 49.226C102.247 49.286 102.295 49.37 102.343 49.478C102.355 49.502 102.361 49.532 102.361 49.568C102.361 49.616 102.325 49.67 102.253 49.73C101.905 49.958 101.575 50.108 101.263 50.18C100.963 50.264 100.603 50.306 100.183 50.306ZM104.843 53.924C104.327 53.924 103.865 53.756 103.457 53.42C103.061 53.096 102.863 52.706 102.863 52.25C102.863 51.71 103.013 51.362 103.313 51.206C103.613 51.062 103.847 50.99 104.015 50.99C104.219 50.99 104.387 51.032 104.519 51.116C104.651 51.2 104.717 51.278 104.717 51.35C104.717 51.374 104.669 51.434 104.573 51.53C104.477 51.626 104.429 51.794 104.429 52.034C104.429 52.274 104.501 52.484 104.645 52.664C104.801 52.844 105.017 52.934 105.293 52.934C106.049 52.934 106.787 52.16 107.507 50.612C107.555 50.444 107.579 50.318 107.579 50.234C107.579 50.114 107.549 49.964 107.489 49.784C107.249 49.244 106.847 48.242 106.283 46.778C105.791 45.47 105.389 44.474 105.077 43.79C104.873 43.322 104.681 43.004 104.501 42.836C104.321 42.656 104.057 42.542 103.709 42.494C103.673 42.482 103.607 42.47 103.511 42.458C103.415 42.446 103.355 42.416 103.331 42.368C103.307 42.32 103.295 42.236 103.295 42.116C103.295 41.972 103.331 41.882 103.403 41.846C103.487 41.81 103.583 41.792 103.691 41.792C103.811 41.78 103.889 41.774 103.925 41.774C104.657 41.738 105.233 41.846 105.653 42.098C106.073 42.338 106.421 42.764 106.697 43.376C106.961 43.988 107.195 44.57 107.399 45.122C107.879 46.418 108.269 47.366 108.569 47.966H108.623L110.387 43.25C110.447 43.046 110.477 42.902 110.477 42.818C110.477 42.686 110.417 42.596 110.297 42.548C110.177 42.5 109.979 42.476 109.703 42.476H109.595C109.499 42.476 109.427 42.458 109.379 42.422C109.343 42.386 109.319 42.296 109.307 42.152C109.307 42.068 109.325 41.99 109.361 41.918C109.409 41.834 109.475 41.792 109.559 41.792C110.243 41.828 110.825 41.846 111.305 41.846C111.497 41.846 111.869 41.834 112.421 41.81L112.799 41.792C112.883 41.792 112.949 41.834 112.997 41.918C113.045 41.99 113.069 42.068 113.069 42.152C113.057 42.296 113.027 42.386 112.979 42.422C112.931 42.458 112.859 42.476 112.763 42.476C112.319 42.476 111.977 42.548 111.737 42.692C111.497 42.836 111.293 43.118 111.125 43.538C110.849 44.222 110.405 45.32 109.793 46.832C109.181 48.344 108.725 49.46 108.425 50.18C107.993 51.212 107.489 52.094 106.913 52.826C106.337 53.558 105.647 53.924 104.843 53.924ZM118.135 50.054C118.039 50.054 117.961 50.018 117.901 49.946C117.841 49.862 117.811 49.766 117.811 49.658C117.823 49.478 117.859 49.37 117.919 49.334C117.991 49.298 118.111 49.28 118.279 49.28C118.627 49.28 118.885 49.22 119.053 49.1C119.221 48.968 119.323 48.812 119.359 48.632C119.407 48.44 119.437 48.194 119.449 47.894V40.748C119.437 40.448 119.407 40.208 119.359 40.028C119.323 39.836 119.221 39.68 119.053 39.56C118.885 39.428 118.627 39.362 118.279 39.362H118.171C118.051 39.362 117.961 39.344 117.901 39.308C117.853 39.26 117.823 39.152 117.811 38.984C117.811 38.876 117.841 38.786 117.901 38.714C117.961 38.63 118.039 38.588 118.135 38.588C118.915 38.624 119.635 38.642 120.295 38.642H122.995C124.039 38.642 125.047 38.858 126.019 39.29C127.003 39.722 127.495 40.586 127.495 41.882C127.495 42.602 127.279 43.244 126.847 43.808C126.415 44.372 125.851 44.81 125.155 45.122C124.471 45.434 123.757 45.59 123.013 45.59C122.329 45.59 121.729 45.494 121.213 45.302V47.894C121.225 48.194 121.249 48.44 121.285 48.632C121.333 48.812 121.441 48.968 121.609 49.1C121.777 49.22 122.035 49.28 122.383 49.28H122.491C122.611 49.28 122.695 49.304 122.743 49.352C122.803 49.388 122.839 49.49 122.851 49.658C122.851 49.766 122.821 49.862 122.761 49.946C122.713 50.018 122.635 50.054 122.527 50.054C121.759 50.018 121.009 50 120.277 50C119.629 50 118.915 50.018 118.135 50.054ZM122.491 44.78C122.923 44.78 123.367 44.696 123.823 44.528C124.291 44.348 124.687 44.048 125.011 43.628C125.335 43.196 125.497 42.632 125.497 41.936C125.497 40.88 125.161 40.178 124.489 39.83C123.817 39.482 123.103 39.308 122.347 39.308C122.035 39.308 121.801 39.344 121.645 39.416C121.489 39.476 121.375 39.602 121.303 39.794C121.243 39.986 121.213 40.286 121.213 40.694V44.582C121.501 44.714 121.927 44.78 122.491 44.78ZM132.516 50.216C131.616 50.216 130.848 50.024 130.212 49.64C129.588 49.256 129.114 48.734 128.79 48.074C128.466 47.414 128.304 46.682 128.304 45.878C128.304 45.17 128.466 44.492 128.79 43.844C129.126 43.184 129.6 42.65 130.212 42.242C130.824 41.834 131.526 41.63 132.318 41.63C133.386 41.63 134.208 41.906 134.784 42.458C135.36 42.998 135.69 43.73 135.774 44.654C135.774 45.05 135.666 45.32 135.45 45.464C135.234 45.608 134.922 45.68 134.514 45.68H130.14C130.14 46.796 130.368 47.684 130.824 48.344C131.292 48.992 132.012 49.316 132.984 49.316C133.5 49.316 133.938 49.208 134.298 48.992C134.658 48.764 135 48.386 135.324 47.858C135.384 47.798 135.444 47.768 135.504 47.768C135.588 47.768 135.66 47.792 135.72 47.84C135.84 47.912 135.9 48.02 135.9 48.164C135.9 48.236 135.888 48.29 135.864 48.326C135.492 48.926 135.018 49.394 134.442 49.73C133.878 50.054 133.236 50.216 132.516 50.216ZM133.074 44.996C133.686 44.996 134.01 44.744 134.046 44.24C134.046 43.688 133.896 43.22 133.596 42.836C133.296 42.452 132.87 42.26 132.318 42.26C131.706 42.26 131.202 42.506 130.806 42.998C130.41 43.478 130.188 44.144 130.14 44.996H133.074ZM140.49 50.306C139.902 50.306 139.398 50.09 138.978 49.658C138.558 49.226 138.348 48.608 138.348 47.804V42.512L137.304 42.548C137.232 42.548 137.172 42.518 137.124 42.458C137.076 42.386 137.052 42.308 137.052 42.224C137.052 42.116 137.07 42.026 137.106 41.954C137.154 41.87 137.22 41.822 137.304 41.81C137.724 41.726 138.048 41.594 138.276 41.414C138.516 41.222 138.69 41.018 138.798 40.802C138.906 40.574 139.038 40.232 139.194 39.776C139.254 39.62 139.386 39.542 139.59 39.542C139.674 39.542 139.758 39.566 139.842 39.614C139.926 39.65 139.968 39.71 139.968 39.794L139.842 41.846L141.948 41.72H141.984C142.14 41.72 142.218 41.834 142.218 42.062C142.218 42.194 142.194 42.32 142.146 42.44C142.11 42.548 142.062 42.602 142.002 42.602L139.986 42.548V48.02C139.986 48.416 140.064 48.746 140.22 49.01C140.388 49.274 140.658 49.406 141.03 49.406C141.402 49.406 141.732 49.34 142.02 49.208C142.176 49.148 142.272 49.118 142.308 49.118C142.392 49.118 142.458 49.154 142.506 49.226C142.554 49.286 142.602 49.37 142.65 49.478C142.662 49.502 142.668 49.532 142.668 49.568C142.668 49.616 142.632 49.67 142.56 49.73C142.212 49.958 141.882 50.108 141.57 50.18C141.27 50.264 140.91 50.306 140.49 50.306Z" fill="white"/>
<path d="M59.2861 3.56779C51.5479 -0.390337 42.4092 -0.437811 33.7689 0.50573C27.1226 1.23564 20.1618 2.68359 15.2364 7.19953C8.42388 13.4423 7.8898 24.2901 13.0941 31.6366C17.4261 37.7548 24.0487 41.5587 31.597 41.7129C35.7154 41.796 40.077 41.7901 44.3912 41.4044C48.2069 44.6029 52.0226 47.8015 55.8383 51C55.1737 47.3445 54.5031 43.689 53.8385 40.0395C53.8207 39.9564 53.8088 39.8733 53.791 39.7903C55.1618 39.4164 56.5029 38.9832 57.8025 38.461C63.8732 36.028 69.3683 31.1975 70.8578 24.8301C72.828 16.362 67.0243 7.52591 59.2861 3.56779Z" fill="white"/>
<path d="M54.7167 15.6736C52.9187 15.6736 51.1918 17.258 51.2749 19.1154C51.358 20.9788 52.7881 22.5573 54.7167 22.5573C56.5148 22.5573 58.2416 20.9729 58.1586 19.1154C58.0755 17.2521 56.6453 15.6736 54.7167 15.6736Z" fill="#00BCF1"/>
<path d="M27.4447 16C25.6467 16 23.9198 17.5844 24.0029 19.4418C24.086 21.3052 25.5161 22.8837 27.4447 22.8837C29.2428 22.8837 30.9697 21.2993 30.8866 19.4418C30.8035 17.5785 29.3733 16 27.4447 16Z" fill="#00BCF1"/>
<path d="M45.6255 32.5505C44.1835 33.4763 42.6643 33.8976 41.1214 33.9688C41.1274 33.9391 41.1452 33.9095 41.1511 33.8798C41.3232 32.3072 41.1689 30.6634 41.163 29.079C41.163 28.1829 41.1808 27.2869 41.1155 26.3967C41.3113 26.4027 41.4893 26.3967 41.6377 26.3611C43.0322 26.0644 45.7798 25.0319 45.9163 23.3109C46.0765 21.317 43.8571 21.4654 42.51 21.4832C41.0621 21.5069 36.3088 20.8838 36.1011 23.0617C35.9646 24.4859 38.095 25.7262 39.8693 26.2009C39.7269 27.2631 39.7447 28.3491 39.7328 29.4232C39.715 30.9245 39.626 32.4556 39.8218 33.9451C38.4154 33.8323 37.009 33.4525 35.6263 32.8769C35.3356 32.7523 35.0863 33.2092 35.3178 33.405C38.457 36.0576 42.9314 35.7728 46.3139 33.7314C47.0734 33.2745 46.3673 32.0698 45.6255 32.5505Z" fill="#00BCF1"/>
<path d="M6.49526 11.5196C5.61106 12.3979 4.90489 13.4779 4.39454 14.6173C3.66463 16.2492 2.92879 17.8752 2.19888 19.5071C1.05358 22.0588 -0.115462 24.7292 0.00915631 27.5242C0.133775 30.3192 1.97932 33.2508 4.75653 33.6127C6.28756 33.8145 7.94914 33.1202 8.74433 31.7969C9.7116 30.1887 9.30214 28.1533 9.01137 26.3018C8.3764 22.2546 8.25179 17.626 9.63446 13.7094C10.1507 12.2555 10.6611 10.8016 11.1774 9.34772C9.31401 9.44266 7.72957 10.2913 6.49526 11.5196Z" fill="white"/>
<path d="M76.9997 14.6173C77.7296 16.2492 78.4655 17.8752 79.1954 19.5071C80.3407 22.0588 81.5097 24.7292 81.3851 27.5242C81.2605 30.3193 79.4149 33.2508 76.6377 33.6128C75.1067 33.8145 73.4451 33.1202 72.6499 31.7969C71.6827 30.1887 72.0921 28.1533 72.3829 26.3018C72.9941 22.4267 73.3086 17.6378 71.3207 14.101C70.478 12.5937 69.3683 11.2526 68.4722 9.78093C68.1637 9.27059 67.9085 8.52881 68.3714 8.14902C68.6028 7.95319 68.941 7.94726 69.2437 7.97099C73.0297 8.2321 75.5577 11.395 76.9997 14.6173Z" fill="white"/>
<path d="M68.2467 19.8335C67.7779 13.9289 64.4429 8.32704 58.8232 6.07204C58.206 5.8228 57.8025 6.82568 58.3722 7.1402C63.0543 9.69785 66.1401 14.1485 66.686 19.4952C67.1489 24.023 66.0095 30.61 60.9714 32.1589C60.0338 32.4437 60.4373 33.9154 61.3749 33.6305C67.0006 31.9037 68.6621 25.0437 68.2467 19.8335Z" fill="#00BCF1"/>
<path d="M55.8145 5.65663C55.8027 5.59729 55.7789 5.53794 55.7552 5.4786C55.8205 4.86738 55.1499 4.44011 54.5921 4.88518C53.9809 5.37179 54.3073 6.22631 54.9719 6.43995C55.2983 6.54676 55.5772 6.35687 55.7374 6.08983C55.8739 5.97708 55.9154 5.79312 55.8145 5.65663Z" fill="white"/>
</svg>
